<?xml version="1.0" encoding="UTF-8" standalone="no"?>
<!-- Created with Inkscape (http://www.inkscape.org/) -->

<svg
   version="1.1"
   id="svg2"
   width="1338.5067"
   height="919.14667"
   viewBox="0 0 1338.5067 919.14667"
   sodipodi:docname="Logo ÄH KHXHNV-USSH.eps"
   xmlns:inkscape="http://www.inkscape.org/namespaces/inkscape"
   xmlns:sodipodi="http://sodipodi.sourceforge.net/DTD/sodipodi-0.dtd"
   xmlns="http://www.w3.org/2000/svg"
   xmlns:svg="http://www.w3.org/2000/svg">
  <defs
     id="defs6" />
  <sodipodi:namedview
     id="namedview4"
     pagecolor="#ffffff"
     bordercolor="#000000"
     borderopacity="0.25"
     inkscape:showpageshadow="2"
     inkscape:pageopacity="0.0"
     inkscape:pagecheckerboard="0"
     inkscape:deskcolor="#d1d1d1" />
  <g
     id="g8"
     inkscape:groupmode="layer"
     inkscape:label="ink_ext_XXXXXX"
     transform="matrix(1.3333333,0,0,-1.3333333,0,919.14667)">
    <g
       id="g10"
       transform="scale(0.1)">
      <path
         d="m 4984.41,6602 c 25.8,0.4 51.7,0.4 77.7,0.4 12.9,-19.6 25.9,-39.1 38.9,-58.7 -19.7,0 -39.3,-0.1 -58.9,-0.2 -19.8,19 -39.2,38.4 -57.7,58.5"
         style="fill:#ffffff;fill-opacity:1;fill-rule:nonzero;stroke:none"
         id="path12" />
      <path
         d="m 4780.01,6524.1 c 24.6,4.4 49.8,4.5 74.8,3.9 2.5,-105 6.5,-210 10.4,-314.9 -24,-1.8 -47.9,-2.3 -71.8,-2.4 -2.9,43.6 -3.8,87.2 -6.1,130.8 -38.5,-1.1 -76.9,-4.4 -115.4,-3.7 3.01,-43.7 2.9,-87.6 6.5,-131.4 -24.7,-1.1 -49.2,-2.5 -73.8,-3.2 -3.3,105.6 -7.7,211.1 -11.4,316.6 24.61,0.1 49.3,0.4 74.01,1.4 0.29,-40.2 2.19,-80.2 2.7,-120.4 38.49,1.4 77.19,2.7 115.79,4.6 -1.9,39.5 -1.19,79.3 -5.7,118.7"
         style="fill:#ffffff;fill-opacity:1;fill-rule:nonzero;stroke:none"
         id="path14" />
      <path
         d="m 5028.11,6348.4 c 22.21,-1.1 44.4,-2.8 66.7,-3.6 -11.3,41.1 -24.1,81.8 -31.9,123.7 -12.1,-39.9 -22.2,-80.4 -34.8,-120.1 z m -10.2,179.6 c 32.1,0.3 64.31,1.2 96.21,-3.6 29.8,-105.9 61.99,-211.2 93.7,-316.6 -26.91,-0.3 -53.7,0.5 -80.31,3.4 -7.59,26.6 -15.4,53.1 -22.79,79.8 -29.6,0 -59.21,0 -88.71,-0.1 -7.8,-26.7 -15.6,-53.4 -23,-80.2 -25.1,0.4 -50.19,1.8 -75.3,3.2 33.6,104.6 66.5,209.5 100.2,314.1"
         style="fill:#ffffff;fill-opacity:1;fill-rule:nonzero;stroke:none"
         id="path16" />
      <path
         d="m 5281.82,6523 c 28.19,-2.2 56.49,-3.7 84.8,-5.3 33.39,-74.8 76,-145.8 99.4,-224.8 0.29,72.6 5,145.1 10.4,217.5 22.1,-0.9 44.09,-2 66.29,-2.9 -6.49,-105 -11.8,-210.1 -19.89,-315 -25.51,-1.3 -50.71,2.2 -76,3.9 -36.41,77.5 -75.8,153.7 -105.8,233.9 -1.81,-75.7 -8.71,-151.2 -11.61,-227 -22.5,1.3 -44.89,2.6 -67.3,3.4 6,105.4 12.41,210.9 19.71,316.3"
         style="fill:#ffffff;fill-opacity:1;fill-rule:nonzero;stroke:none"
         id="path18" />
      <path
         d="m 4285.41,6494.2 c 81.01,5.6 161.7,14.4 242.7,18.7 1.41,-20.3 2.9,-40.6 4.4,-60.9 -28.3,-1.8 -56.6,-4.3 -84.8,-6.6 6.41,-84.6 13.4,-169.2 20.8,-253.7 -24.1,-2.1 -48.1,-4.2 -72.09,-6.2 -8.31,84.3 -14.51,168.7 -21.21,253 -28.7,-1.6 -57.3,-3.5 -86,-4.6 -1.2,20.1 -2.5,40.2 -3.8,60.3"
         style="fill:#ffffff;fill-opacity:1;fill-rule:nonzero;stroke:none"
         id="path20" />
      <path
         d="m 5633.41,6495.1 c 23.41,5 48.21,-4 72.1,-5.5 -4.49,-39.8 -8.49,-79.6 -13.4,-119.3 37.9,-4.5 75.8,-9.6 114,-12.9 5,39.6 10.2,79.2 12.81,119.1 24.49,-2.4 49.09,-5.1 73.7,-7.4 -12.01,-104.6 -24.1,-209.3 -35.4,-314 -24.21,1.9 -48.21,4.4 -72.1,7.6 2.59,44.1 11.9,87.5 11.79,131.8 -37.1,2.8 -74.09,7.6 -110.89,12.5 -7.41,-43.6 -10.21,-87.8 -16.41,-131.6 -24,2.9 -47.79,5.8 -71.6,8.5 11.6,103.8 22.6,207.6 35.4,311.2"
         style="fill:#ffffff;fill-opacity:1;fill-rule:nonzero;stroke:none"
         id="path22" />
      <path
         d="m 4003.31,6401.8 c -2.4,-42.5 -7.2,-84.8 -14.5,-126.8 22.2,3.1 44.4,6 66.7,9.1 -17.89,39 -35.5,78.2 -52.2,117.7 z m -51.49,49.9 c 31.29,4.3 62.7,8.6 93.89,13.5 47.11,-99.8 95.8,-198.9 141.6,-299.3 -25,-3.5 -50,-7.5 -74.8,-12.1 -15.2,24.4 -26.5,50.9 -38.1,77 -29.4,-4 -58.8,-7.9 -88.1,-12.9 -3.4,-27.1 -6.79,-54.2 -9.4,-81.4 -25,-4.5 -50.09,-8.4 -75.09,-11.9 15.69,109.2 33.59,218 50,327.1"
         style="fill:#ffffff;fill-opacity:1;fill-rule:nonzero;stroke:none"
         id="path24" />
      <path
         d="m 6158.92,6369.3 c -5.81,-30.6 -11.21,-61.2 -16.81,-91.8 18.01,-2.3 36.81,-10.5 55.11,-4.4 30.4,5.5 47.59,46.6 28.59,71.5 -16,20.3 -43.7,21 -66.89,24.7 z M 6040.91,6125 c 18.41,102.6 37,205.2 56,307.7 56.7,-5.6 117.41,-7 167.9,-36.6 64.2,-38.6 48.8,-149.5 -20.4,-173.6 -35.89,-14.5 -75.4,-8.8 -111.9,-0.5 -7.3,-36.4 -13.59,-73 -20.49,-109.5 -23.81,3.9 -47.5,8 -71.11,12.5"
         style="fill:#ffffff;fill-opacity:1;fill-rule:nonzero;stroke:none"
         id="path26" />
      <path
         d="m 3721.82,6412.2 c 23.89,4.1 47.7,8.3 71.69,12.5 18.31,-103.8 37.8,-207.4 56.21,-311.2 -23.91,-4.3 -47.81,-8.6 -71.61,-13.1 -18.59,104 -38.19,207.7 -56.29,311.8"
         style="fill:#ffffff;fill-opacity:1;fill-rule:nonzero;stroke:none"
         id="path28" />
      <path
         d="m 3444.81,6330.9 c 50.31,47.3 123.5,62.4 190.7,56.1 -1.5,-20.3 -2.89,-40.6 -3.89,-60.9 -42.3,4.4 -88.8,-0.1 -123.61,-26.6 -60.1,-47.6 -32.2,-159 40.91,-177 26.79,-7.8 53.9,2.8 79.59,9.7 -4.1,22 -9.1,43.9 -15,65.5 -15.4,-3.8 -30.69,-7.6 -46.09,-11.4 -2.21,18.7 -14.01,39.1 -8.81,57.1 37.4,9.5 75.31,17.6 113.3,24.5 10.6,-55 25,-109.2 35.11,-164.4 -65.71,-34.2 -145,-62.5 -217.9,-33.8 -95.61,42.7 -119.8,188.9 -44.31,261.2"
         style="fill:#ffffff;fill-opacity:1;fill-rule:nonzero;stroke:none"
         id="path30" />
      <path
         d="m 6395.81,6382.9 c 23.51,-5.6 47.1,-11.3 70.7,-17.3 -9.6,-38.8 -18.3,-77.8 -27.79,-116.6 36.89,-9.8 74.39,-17.7 111.6,-26.9 9.49,39.2 18.8,78.5 27.99,117.8 23.2,-5.9 46.5,-11.1 70,-16.2 -21.4,-103.5 -48.19,-205.7 -71.4,-308.8 -23.9,5.6 -47.7,11.3 -71.7,16.4 10.9,42.8 20.7,85.8 30.5,128.8 -37.5,8.4 -75,16.9 -112.19,26.3 -9.2,-42.9 -20.11,-85.3 -29,-128.3 -24.01,5.3 -47.9,10.8 -71.7,16.5 24,102.8 48.09,205.7 72.99,308.3"
         style="fill:#ffffff;fill-opacity:1;fill-rule:nonzero;stroke:none"
         id="path32" />
      <path
         d="m 6870.12,6337.1 c 15.39,-4.4 30.79,-8.8 46.39,-13.1 10,-23.1 18.61,-46.8 26.6,-70.8 -15.49,4.7 -30.89,9.4 -46.29,14.1 -3.91,11.1 -7.81,22.1 -11.61,33.2 -9.5,-7.1 -18.99,-14.2 -28.39,-21.4 -15.2,4.7 -30.6,9.3 -45.71,13.9 19.6,14.8 39.3,29.5 59.01,44.1"
         style="fill:#ffffff;fill-opacity:1;fill-rule:nonzero;stroke:none"
         id="path34" />
      <path
         d="m 6929.01,6300.2 c 15.71,16.2 32.9,30.9 50.91,44.5 20.2,-6.1 40.49,-12.3 60.79,-18.6 -35.99,-13.4 -71.79,-45.4 -111.7,-25.9"
         style="fill:#ffffff;fill-opacity:1;fill-rule:nonzero;stroke:none"
         id="path36" />
      <path
         d="m 2796.01,6286.2 c 20.41,7.4 40.61,15 61.01,22.5 -14.11,-25.2 -28.31,-50.3 -42.7,-75.3 -8.41,-3 -25.2,-8.9 -33.61,-11.9 4.9,21.6 10,43.2 15.3,64.7"
         style="fill:#ffffff;fill-opacity:1;fill-rule:nonzero;stroke:none"
         id="path38" />
      <path
         d="m 3039.81,6225.9 c 42.41,43.9 105.31,62.2 165.11,59.6 0,-19.6 0,-39.2 0,-58.9 -33.91,-0.5 -70.31,-4.7 -97.3,-27.1 -68.41,-50.7 -25.8,-182.4 59.69,-181.8 33.4,-1.8 63.01,15.8 91.3,30.9 9.7,-16.9 19.01,-34.1 28.3,-51.3 -53.9,-37 -124.2,-58.3 -188.3,-37.2 -100.6,38.6 -134,188.4 -58.8,265.8"
         style="fill:#ffffff;fill-opacity:1;fill-rule:nonzero;stroke:none"
         id="path40" />
      <path
         d="m 6802.02,6202.6 c -42.1,-28.6 -60.11,-84.4 -56.41,-133.4 2.3,-46.2 57.21,-81.7 98.51,-56.3 45.2,30.3 66.69,91.8 55.89,144.2 -6.8,42.9 -60.8,69.9 -97.99,45.5 z m -30,58.6 c 74.8,29.5 174.29,-7.9 199.09,-87.5 21,-72.2 -4.49,-158 -65,-203.8 -73.89,-51.8 -194.89,-19.7 -227.1,66.6 -29.6,82.6 9.3,190.8 93.01,224.7"
         style="fill:#ffffff;fill-opacity:1;fill-rule:nonzero;stroke:none"
         id="path42" />
      <path
         d="m 2712.21,6214.2 c 16,5.9 32,11.8 48,17.6 20.3,-13.6 40.5,-27.1 60.8,-40.7 -15,-5.5 -29.9,-11 -44.8,-16.6 -10,6.7 -20,13.4 -29.89,20 -3.31,-11.6 -6.51,-23.2 -9.61,-34.8 -14.7,-5 -29.4,-10.1 -44.1,-15 6.21,23.2 12.9,46.4 19.6,69.5"
         style="fill:#ffffff;fill-opacity:1;fill-rule:nonzero;stroke:none"
         id="path44" />
      <path
         d="m 2772.21,6100.8 c -34.5,-14.7 -45.69,-56.8 -38.9,-91 8.9,-48.1 38.01,-104.7 92.4,-110 53,0.9 80.5,61.7 63.7,107.5 -9.69,52.1 -57.1,118.1 -117.2,93.5 z m -0.5,61.6 c 54.3,17.1 118.01,-2.7 152.1,-48.6 39.1,-51.1 57.61,-123.1 32.7,-184.4 -26,-60.9 -96.3,-95.4 -160.4,-90 -93.9,10.7 -150,116.3 -135.9,203.5 8.3,58.2 55.4,105.4 111.5,119.5"
         style="fill:#ffffff;fill-opacity:1;fill-rule:nonzero;stroke:none"
         id="path46" />
      <path
         d="m 7200.61,6151.9 c 22.5,-9 45,-18 67.7,-26.7 -14.39,-37.8 -30.1,-75 -43.7,-113 35.71,-13.3 70.8,-27.9 106.41,-41.4 14.59,37.5 29.39,74.9 44.3,112.3 22.5,-9 45.19,-17.9 67.89,-26.5 -38.2,-98.2 -76.79,-196.2 -115.5,-294.1 -23.1,7.8 -45.8,16.4 -68.1,25.9 15.51,40.7 31.2,81.4 47.81,121.7 -35.11,15.3 -71.11,28.3 -106.61,42.6 -16.4,-40.7 -32,-81.6 -48.3,-122.3 -22.9,8.9 -45.6,17.9 -68.19,27.2 39.4,97.8 76.7,196.5 116.29,294.3"
         style="fill:#ffffff;fill-opacity:1;fill-rule:nonzero;stroke:none"
         id="path48" />
      <path
         d="m 2473.82,6037 c 22.09,10.6 44.49,20.6 66.99,30.2 25.61,-60 54,-118.8 78.5,-179.2 17.21,-43.5 17.4,-99.4 -17.69,-134.3 -36.61,-35.6 -91.71,-57.7 -142.5,-43.9 -42.41,14.9 -68.11,55.5 -85.3,94.8 -23.11,52.8 -48.11,104.9 -68.71,158.8 22,9 43.71,18.5 65.3,28.5 26.9,-57.2 51.01,-115.8 77.7,-173.1 12.1,-26.4 36.6,-55.8 69.2,-48.5 34.11,6.2 52.8,45.1 38.9,76.4 -23.7,64.9 -55.6,126.6 -82.39,190.3"
         style="fill:#ffffff;fill-opacity:1;fill-rule:nonzero;stroke:none"
         id="path50" />
      <path
         d="m 7601.22,6003.9 c 21.09,10.9 42.09,22.2 63.19,33.3 14.91,-7.1 29.71,-14.1 44.71,-21.2 5.49,-24 10.2,-48.2 14.69,-72.5 -26.39,9.1 -54.2,22.1 -49.29,55.4 -11.61,-6 -23.3,-11.8 -34.71,-17.6 -12.99,7.5 -25.89,15 -38.59,22.6"
         style="fill:#ffffff;fill-opacity:1;fill-rule:nonzero;stroke:none"
         id="path52" />
      <path
         d="m 7712.51,6049.2 c 18.6,-8.4 37.41,-16.9 56.21,-25.2 2.39,-21.6 4.69,-43.2 7.3,-64.8 -45.81,6.5 -48.51,55.9 -63.51,90"
         style="fill:#ffffff;fill-opacity:1;fill-rule:nonzero;stroke:none"
         id="path54" />
      <path
         d="m 7572.51,5911.1 c -40.4,-22.6 -62.59,-68.4 -70,-112.5 -7.19,-40.8 24.91,-82.2 66.5,-83.9 62.3,7.6 98.7,76.5 99.2,134.1 4.8,48.5 -53,87.3 -95.7,62.3 z m -30.2,60.4 c 74.91,28.1 169.91,-16.2 194.51,-92.8 20.6,-74.7 -14.11,-158.6 -76.5,-202.6 -83.21,-56.3 -216.8,-0.1 -230.11,100.9 -10.89,79 35.6,166.6 112.1,194.5"
         style="fill:#ffffff;fill-opacity:1;fill-rule:nonzero;stroke:none"
         id="path56" />
      <path
         d="m 2131.42,5814.3 c -29.61,-12.3 -48.01,-45.1 -42.71,-76.8 7,-50.3 38.3,-104.8 89.9,-119 51,-11.9 92.71,44 76.3,91 -12.3,54.2 -59.8,123.3 -123.49,104.8 z m -114.61,-66 c 8.2,92 114.4,157.8 200.4,125.6 89.5,-35.7 141.5,-155.8 91.1,-241.8 24.4,6.5 48.8,13 72.9,20.4 3.2,-19.8 6.4,-39.5 9.6,-59.3 -37.7,-9.3 -76.2,-14.2 -114.8,-18.4 -36.7,-3.6 -70.1,-25.6 -107.9,-21.4 -94.9,3.8 -159.09,106.5 -151.3,194.9"
         style="fill:#ffffff;fill-opacity:1;fill-rule:nonzero;stroke:none"
         id="path58" />
      <path
         d="m 7568.31,3358 c -4.3,-39.5 -5,-79.3 -8.1,-119 -31.9,-404.5 -172.39,-799.4 -401.09,-1134.4 349.29,1.4 698.59,-1.7 1047.79,1.6 92.81,73.4 172.61,163 250.51,252 238.8,279.8 408.69,628.9 430.69,999.8 -439.9,0 -879.9,0 -1319.8,0 z m -6479.6,-0.6 c 14.8,-201.9 68.2,-400.7 157.5,-582.5 120.6,-249.9 299.5,-468.2 503.9,-654.2 9.8,-11 22.9,-17.5 38,-15.7 377.7,-0.4 755.4,0.2 1133.2,-0.3 -251.5,367.4 -396,807.7 -407.8,1253 -474.9,0.3 -949.9,0.9 -1424.8,-0.3 z M 7106.91,4828 c 301.61,-408.3 468.01,-915.1 461,-1423.1 441.01,0 882.01,-0.1 1323,0.1 5.6,217.3 -36.99,435.1 -121.1,635.5 -128.9,307.4 -346,570.4 -596.7,787 -355.4,1.2 -710.8,0.2 -1066.2,0.5 z m -5322.2,-17.6 c -177.6,-156.4 -336.8,-335.5 -459.1,-538.6 -157.6,-259.2 -249.19,-562.2 -237.7,-866.9 475.1,-0.1 950.2,0.1 1425.2,-0.2 -8.6,508 158.51,1015.2 460.4,1423.1 -385.4,0.3 -770.8,0.2 -1156.1,0.1 -14,2.4 -22.9,-10.3 -32.7,-17.5 z m 3738.81,1005.4 c 271,-51.1 533.99,-145 775.2,-278.7 300.69,-165.5 564.69,-394.7 776.09,-664.7 348.5,-0.7 697.1,0.2 1045.7,-0.5 -366.19,299 -795.5,513.1 -1241.39,665 -437.81,150.2 -895.4,236.2 -1355.6,278.9 z M 2731.21,5395.2 c -312.5,-136 -610.5,-308.2 -875.3,-523.5 380.3,1.4 760.71,-0.3 1141,0.8 13.01,-1 18.5,13.8 26.5,21.4 389.7,496.5 973.41,836.6 1597.4,930.9 -27.1,0.8 -54.1,-1 -80.89,-3.9 -620,-44.6 -1237.21,-177.7 -1808.71,-425.7 z m 2261.5,475.3 c 0.11,-17.2 0.3,-34.4 0.5,-51.6 -41.1,-2.9 -82.2,-6 -123.29,-8.1 l 0.99,0.1 c -310.79,-22.1 -618.29,-97.1 -901.79,-227.4 -354.6,-161.3 -670.11,-407.2 -913.51,-711.4 248.1,0.1 496.21,0.3 744.4,-0.2 -0.2,-14.6 -0.29,-29.2 -0.29,-43.9 -259.4,-0.1 -518.91,0.1 -778.3,-0.1 -308.31,-405 -483.51,-912.9 -473.41,-1423 417.2,0 834.5,-0.1 1251.8,0 -0.09,-15.6 -0.09,-31.2 0,-46.9 -417.39,0 -834.8,0 -1252.1,0 13,-446.7 161.9,-887.7 419.4,-1252.7 277.5,-0.9 554.91,-0.5 832.3,-0.2 0,-14.7 -0.09,-29.4 -0.2,-44.3 -266.9,0.9 -533.8,-0.1 -800.7,0.5 150.2,-205.1 333.2,-386.2 539.31,-535 -0.11,-17.3 -0.11,-34.5 0,-51.9 -218.41,155.9 -412.7,346.1 -570.11,563.7 -8.3,8.7 -14.1,25.5 -28.9,22.8 -373.7,0.8 -747.49,-0.3 -1121.3,0.5 342.4,-290.1 745,-502.1 1164.6,-657.1 428.6,-156.9 877.7,-257.4 1331.5,-303.8 -261.9,74.5 -511.19,192.6 -735.99,346.1 23.59,5.2 47.79,3.8 71.79,3.6 252.7,-164.7 536.1,-281.5 830.4,-346.8 91.2,-21 184.31,-35 278.01,-35.1 136.3,-6 272.59,-6.3 409,-2.3 153.39,7.4 309.2,5.7 459.09,43.3 284.5,66.4 559.1,179.9 803.41,340.6 22.79,-2.1 49.4,7.3 69.4,-7 -205.31,-136.7 -428.31,-247.5 -663.51,-322.1 493.31,66.1 980,194.1 1436.01,395.1 318.5,141 622.39,319.5 888.39,545.4 -343.7,-1 -687.5,1.2 -1031.2,-1.1 -166.5,-236.2 -376.99,-439.4 -612.9,-605.7 l -5.59,3.3 c -2.61,8.9 -7.7,26.8 -10.2,35.8 3.89,3.3 11.7,10 15.6,13.3 217.39,152.5 409,341.2 566.9,554.5 -302.9,-0.5 -605.8,-0.3 -908.7,-0.1 0.09,10.9 0.09,32.6 0.2,43.5 313.59,1.2 627.3,-2.1 940.89,1.6 255.2,365.6 405.8,805.2 417.21,1251.6 -439.31,0 -878.71,0 -1318.01,0 -0.09,15.6 -0.2,31.2 -0.2,46.8 440,0.3 880,-0.2 1320,0.2 6.8,510.1 -166.19,1017.8 -474.8,1423 -281.7,0 -563.4,0 -845,0 -0.09,14.8 -0.2,29.5 -0.09,44.2 270.2,0.2 540.4,-0.5 810.6,0.3 -186.11,232.3 -413.91,431 -669.91,583 -347.99,208.3 -746.79,330.3 -1151.5,354.7 l 5.9,-0.3 c -46.99,4.9 -94.29,4.3 -141.39,8 -9.6,0 -17.61,3.3 -24.11,10.1 1.41,10.7 4.11,32 5.4,42.7 -18.7,0 -37.4,-0.1 -56,-0.2 z m -253.39,6.1 c 508.19,18 1019.2,-19.1 1517.19,-123.8 389.71,-81.6 771.9,-203.5 1132.3,-373.5 371.2,-176.2 722.41,-404.6 1007.3,-702.8 253.9,-265.3 452.1,-595.1 516,-960.2 62.3,-342.3 -1.79,-702.1 -164.29,-1008.4 -148.21,-283.4 -366.71,-525 -614.01,-725.5 -293.8,-237.9 -628.69,-421.3 -978.1,-563.7 -440.5,-178.5 -906.19,-291.5 -1377.3,-350.9 -97.1,-13 -194.89,-19.7 -291.9,-32.7 -204,-33.3 -411.7,-45.998 -617.9,-31.4 -100.99,4.4 -200.5,23.3 -301.3,29 -475.09,31.2 -947.59,115.5 -1401.2,261.1 -389,125.6 -765.3,296.5 -1104,526.4 -329.6,225 -627.7,510 -819.5,863.4 -119.4,218.8 -190.3,464.4 -200.99,713.5 4.19,53.4 -0.41,107 4.19,160.4 20.9,308.3 140.81,604.2 318.31,855.2 192.5,273.7 446.59,499.2 723.49,684.7 351.1,233.5 740.5,405.2 1142.71,529.2 489,150.2 998.39,229.8 1509,250"
         style="fill:#ffffff;fill-opacity:1;fill-rule:nonzero;stroke:none"
         id="path60" />
      <path
         d="m 7852.42,5533.8 c -31.61,95.2 44.2,211.4 145.59,216.3 65.1,3.6 126.11,-31.8 167.8,-79.7 -14.3,-14.4 -28.59,-28.8 -42.8,-43.1 -31.19,35.2 -78.89,70.6 -128.2,53.1 -45.69,-19.6 -79.8,-71 -73.39,-121.3 9.8,-51.1 61.4,-77.5 107.19,-89.8 -7.3,-18.2 -14.29,-36.6 -21.1,-55.1 -64.6,16.1 -131.2,54.1 -155.09,119.6"
         style="fill:#ffffff;fill-opacity:1;fill-rule:nonzero;stroke:none"
         id="path62" />
      <path
         d="m 1676.01,5579 c 26.5,54.2 81.7,90.2 139.1,104.3 5.7,-18.8 11.7,-37.5 17.7,-56.1 -46.49,-13.8 -98.5,-45.6 -101.39,-99.3 0.2,-53.4 41.59,-108.4 96.19,-115.6 44.8,-1.1 82,30.1 109.5,62.4 14,-14.1 28,-28.3 41.91,-42.7 -40.91,-47.5 -96.21,-90.1 -161.81,-89.8 -112.2,-1 -192.3,139 -141.2,236.8"
         style="fill:#ffffff;fill-opacity:1;fill-rule:nonzero;stroke:none"
         id="path64" />
      <path
         d="m 8052.42,5376.9 c 60.69,86.3 123.09,171.4 183.29,258 20.2,-14 40.31,-28.1 60.51,-42.2 -23.31,-33.1 -47.7,-65.4 -69.8,-99.3 31.09,-21.6 61.59,-44 92.5,-65.9 23.3,32.8 46.89,65.4 70.09,98.3 20,-14.1 40,-28.2 60.4,-42 -61.79,-86.2 -122.5,-173 -184.69,-258.8 -19.8,14.4 -39.51,28.7 -59.4,42.8 25.19,35.7 51.19,70.9 75.79,107.1 -30.6,22.7 -61.5,44.7 -92.8,66.3 -25.49,-35.7 -50.6,-71.6 -76.8,-106.8 -19.6,14.4 -39.29,28.5 -59.09,42.5"
         style="fill:#ffffff;fill-opacity:1;fill-rule:nonzero;stroke:none"
         id="path66" />
      <path
         d="m 1472.01,5382 c -29.8,-14.9 -48.5,-51.3 -35.9,-83.6 14.7,-46.8 51.6,-92.1 101.2,-102.9 49.5,-9.9 92.9,46.8 72.2,92.5 -19.4,53.9 -74.8,115.5 -137.5,94 z m -9.9,61.9 c 102.3,43.7 213.4,-54 220.4,-155.6 10.4,-97.6 -97.4,-185.1 -190.89,-155.2 -76.01,24.4 -134.21,104.5 -125.71,185.3 2.8,56.3 46.4,103.7 96.2,125.5"
         style="fill:#ffffff;fill-opacity:1;fill-rule:nonzero;stroke:none"
         id="path68" />
      <path
         d="m 8529.61,5433.2 c 23.1,6.8 46.3,13.4 69.6,19.8 19.8,-16.1 39.51,-32.2 59,-48.6 -27.5,-3.3 -55,-6.5 -82.5,-9.4 -15.59,12.5 -30.99,25.2 -46.1,38.2"
         style="fill:#ffffff;fill-opacity:1;fill-rule:nonzero;stroke:none"
         id="path70" />
      <path
         d="m 8319.72,5176.7 c 66.09,82 133.49,163 200.2,244.7 19.2,-14.9 38.19,-30.2 56.99,-45.8 -66.5,-82.2 -133.9,-163.7 -200.89,-245.4 -19,15.3 -37.81,30.8 -56.3,46.5"
         style="fill:#ffffff;fill-opacity:1;fill-rule:nonzero;stroke:none"
         id="path72" />
      <path
         d="m 1241.62,5257.1 c 75,-74.8 150.69,-148.9 224.29,-225.1 -17.4,-16.7 -34.49,-33.6 -51.5,-50.5 -31.5,30.2 -61.8,61.7 -93.09,92.1 -26.71,-27 -53.91,-53.6 -80.21,-81.1 30.9,-30.5 61.7,-61.3 92.3,-92.2 -17.2,-17.3 -34.49,-34.6 -51.79,-51.8 -74.81,74.9 -149.51,149.8 -224.51,224.4 17.2,17.3 34.41,34.5 51.81,51.6 28.59,-27.8 56.69,-56 84.59,-84.6 27.5,26.5 54.3,53.6 81.1,80.7 -28.29,28.3 -56.6,56.6 -84.8,84.9 17.1,17.3 34.4,34.6 51.81,51.6"
         style="fill:#ffffff;fill-opacity:1;fill-rule:nonzero;stroke:none"
         id="path74" />
      <path
         d="m 8509.61,5020.7 c 81,68.8 162.9,136.5 244,205.3 22,-23.5 43.61,-47.4 66.8,-69.8 -36.2,-64.5 -73.3,-128.6 -114.9,-189.8 64.5,36.9 131.11,69.6 197.9,102.2 22.1,-23 43.61,-46.5 65.8,-69.5 -72.39,-77 -145.4,-153.4 -217.19,-231 -17.41,16.8 -33.91,34.4 -49.11,53 54.8,57.2 110.1,113.9 166.21,169.9 -72.7,-37.1 -145.4,-74 -219.4,-108.4 -13.01,13.2 -26.2,26.4 -39.21,39.4 40.71,70.5 82.11,140.7 128.5,207.6 -60.29,-52.5 -120.09,-105.6 -181.3,-157 -16.2,16 -32.3,32 -48.1,48.1"
         style="fill:#ffffff;fill-opacity:1;fill-rule:nonzero;stroke:none"
         id="path76" />
      <path
         d="m 1651.11,5144.4 c 18.4,12.2 35.9,-4.2 48.4,-16.6 0.9,-20.4 -6.4,-46.7 -31.7,-45.8 -35.3,-7 -48.5,49.9 -16.7,62.4"
         style="fill:#ffffff;fill-opacity:1;fill-rule:nonzero;stroke:none"
         id="path78" />
      <path
         d="m 8796.51,4720.2 c 83.01,65.6 166.7,130.2 250.11,195.2 15,-19.3 30.09,-38.6 45.09,-58.1 -82.9,-65.1 -166.7,-128.9 -249.2,-194.6 -15.69,18.9 -31.09,38.1 -46,57.5"
         style="fill:#ffffff;fill-opacity:1;fill-rule:nonzero;stroke:none"
         id="path80" />
      <path
         d="m 870.113,4846.1 c 15,19.3 30.102,38.6 45.2,57.8 83.402,-64.7 167.097,-129 250.297,-193.9 -14.9,-19.5 -29.8,-38.9 -45.2,-58 -83.2,65 -167.094,129.1 -250.297,194.1"
         style="fill:#ffffff;fill-opacity:1;fill-rule:nonzero;stroke:none"
         id="path82" />
      <path
         d="m 8877.62,4602.9 c 89.8,55.2 178.09,112.7 267.5,168.6 15.2,-24.1 30.49,-48.2 45.79,-72.3 -39.89,-70.7 -74.09,-144.9 -121.79,-210.9 58.19,42.1 119.09,80.4 180.2,118.1 12.7,-18.8 24.6,-38 35.8,-57.8 -89.71,-55.2 -177.7,-113.1 -267.5,-168.2 -14.1,21.7 -27.81,43.6 -40.8,66 43.39,73.5 80,150.9 127.79,221.8 -62.99,-42.6 -126.9,-83.7 -191.79,-123.2 -11.91,19.2 -23.7,38.5 -35.2,57.9"
         style="fill:#ffffff;fill-opacity:1;fill-rule:nonzero;stroke:none"
         id="path84" />
      <path
         d="m 788.715,4626.1 c 29.5,-29.7 56.598,-61.7 85.898,-91.6 11.703,18.1 23.2,36.4 34.602,54.7 -40.102,12.6 -80.801,23 -120.5,36.9 z m -74.102,-7.2 c 18.801,25.7 30.903,58.2 54.102,79.4 105.898,-27.6 211.598,-56.6 317.395,-85 -14.4,-22.2 -28.4,-44.6 -42.19,-67.1 -27.21,7.8 -54.408,15.4 -81.705,22.8 -15.203,-24.9 -31,-49.5 -46.801,-74 18.801,-21 37.699,-42 55.801,-63.6 -13.602,-20.9 -27,-42 -40.199,-63.2 -72.5,83.3 -143.703,167.6 -216.403,250.7"
         style="fill:#ffffff;fill-opacity:1;fill-rule:nonzero;stroke:none"
         id="path86" />
      <path
         d="m 1052.51,4483.8 c 36.31,14.3 66.9,-40.5 31,-60.7 -39.69,-28 -76.4,45.6 -31,60.7"
         style="fill:#ffffff;fill-opacity:1;fill-rule:nonzero;stroke:none"
         id="path88" />
      <path
         d="m 9047.82,4321.7 c 96.9,41.9 193.29,85 290.09,127 9.8,-22.4 19.6,-44.7 29.31,-67.2 -37.01,-15.8 -73.5,-32.5 -110.4,-48.3 15.09,-35 30.29,-69.9 46,-104.7 36.99,15.4 73.49,32.3 110.59,47.9 9.6,-22 19.41,-43.9 29.7,-65.7 -96,-44.4 -193.5,-85.4 -290.1,-128.5 -10.1,22.3 -19.9,44.7 -29.7,67.1 40,17.8 80.3,35.1 120.41,52.8 -15.31,35 -30.41,70.1 -46.01,104.9 -40.49,-16.9 -80.09,-35.5 -120.49,-52.5 -10,22.3 -19.8,44.8 -29.4,67.2"
         style="fill:#ffffff;fill-opacity:1;fill-rule:nonzero;stroke:none"
         id="path90" />
      <path
         d="m 596.914,4269.5 c 21.5,-10.5 43.399,-20.3 65.301,-30.1 8.801,19.1 17.5,38.1 26.101,57.2 17.598,-7.8 35.2,-15.8 52.5,-24.4 -8.503,-18.4 -16.902,-37 -25.3,-55.5 23.597,-11.5 47.398,-22.4 71.699,-32.3 9,20.2 20.598,40.3 21.101,63 8.2,65.3 -62.8,110.2 -120.8,110.9 -49.903,1.7 -76.903,-47.8 -90.602,-88.8 z m 16.199,133.7 c 85.301,71.5 230.602,8.5 254.903,-94.9 12.297,-76.6 -25.5,-148.7 -61.403,-213.6 -40.699,18 -80.797,37.3 -122,53.9 -3.398,-7.4 -10.101,-22.3 -13.398,-29.7 -17.102,8 -34.203,15.7 -51.301,23.3 3,7.9 9,23.5 12,31.4 -37.5,15.9 -74.801,32.5 -111.898,49.3 21,64 42.297,133.2 93.097,180.3"
         style="fill:#ffffff;fill-opacity:1;fill-rule:nonzero;stroke:none"
         id="path92" />
      <path
         d="m 441.516,3653.6 c 59.597,22.8 134,-6.6 156.8,-67.4 34.297,-71.7 -21.101,-165.4 -100.3,-170.1 -69.301,-9.8 -139.801,51.2 -134.903,122.1 -3.199,50.4 31.399,98.7 78.403,115.4"
         style="fill:#ffffff;fill-opacity:1;fill-rule:nonzero;stroke:none"
         id="path94" />
      <path
         d="m 9412.31,3651.3 c 69.71,32.6 160.6,-15.2 170.9,-91.9 15.2,-73.5 -49.9,-150.1 -125.39,-143.7 -75.71,-1.8 -136.11,80.1 -115.6,151.9 7.99,37.3 35.49,68.5 70.09,83.7"
         style="fill:#ffffff;fill-opacity:1;fill-rule:nonzero;stroke:none"
         id="path96" />
      <path
         d="m 544.313,3051.8 c 19.8,6.7 40,12.2 60.3,16.8 20.403,-78 42.399,-155.6 64.102,-233.2 -19.699,-6.7 -39.602,-12.4 -59.699,-17.9 -7.301,27.6 -15,55.1 -23,82.5 -82.301,-21.3 -163.602,-46.3 -246.102,-66.5 -5.898,23.3 -12.199,46.6 -18.5,69.7 81.902,22.5 163.801,45.1 245.598,67.8 -7.699,26.9 -15.199,53.9 -22.699,80.8"
         style="fill:#ffffff;fill-opacity:1;fill-rule:nonzero;stroke:none"
         id="path98" />
      <path
         d="m 9285.21,2997.2 c 6.01,21.7 12.3,43.3 19,64.8 101.2,-28.9 202.1,-58.8 303.7,-86.2 -6.8,-25 -13.79,-49.9 -21.4,-74.6 -83.3,-18.4 -166.1,-39.8 -250.4,-53.5 73.01,-18.1 145.2,-39 217.61,-59.5 -5.51,-22 -11.61,-43.9 -17.5,-65.8 -101.21,29.2 -202.61,57.9 -303.91,86.9 7.01,27.5 14.71,54.8 22.7,82 81.1,19.3 161.81,41.2 244.71,52.1 -73.41,9.4 -143.41,34.6 -214.51,53.8"
         style="fill:#ffffff;fill-opacity:1;fill-rule:nonzero;stroke:none"
         id="path100" />
      <path
         d="m 578.016,2683 c 10,-22.7 18.699,-51 44.5,-60.1 18.398,-7.8 38.199,5.9 49.398,19.9 12.5,24.9 -5.398,50.8 -14.398,73.5 -26.801,-10.3 -53.403,-21.4 -79.5,-33.3 z m -190.403,0 c 95.703,38.9 190.801,79.5 285.801,120.4 31,-55.9 70,-116.8 62.699,-183.4 -10.297,-64.7 -99,-87.4 -144.101,-42.6 -12.098,-57.9 -75.297,-77.6 -111.899,-117.1 -9.898,23.1 -19.8,46.2 -29.5,69.3 25.801,26.9 59.7,44.6 84.602,72.2 14,18.8 0.5,41.7 -6,60.5 -38.399,-14.9 -76,-31.9 -114.102,-47.8 -10.199,22.4 -20,45.1 -27.5,68.5"
         style="fill:#ffffff;fill-opacity:1;fill-rule:nonzero;stroke:none"
         id="path102" />
      <path
         d="m 9118.92,2740.5 c 51.29,-23.3 42.5,-96.9 -0.71,-123.4 -17.19,-10.3 -37.6,-5.1 -55.7,-1.1 4.6,11.4 10.11,22.4 16.41,32.9 17.99,3.7 41.2,17.3 33.1,39.3 -10.6,17.8 0,35.6 6.9,52.3"
         style="fill:#ffffff;fill-opacity:1;fill-rule:nonzero;stroke:none"
         id="path104" />
      <path
         d="m 9211.71,2618.2 c 32.81,-25.2 64.31,-52.1 96.11,-78.8 9.4,19.9 18.6,40 27.89,59.9 -41.39,5.9 -82.8,12.2 -124,18.9 z m -73.6,-15.9 c 13.6,28.8 26.81,57.8 40.41,86.6 110,-14.3 219.79,-29.2 330,-41.9 -12.1,-23.2 -23.2,-46.9 -32.81,-71.3 -28.4,2.1 -56.5,6.4 -84.49,10.9 -12.3,-26.7 -24.71,-53.3 -36.81,-80.1 20.4,-18.6 41.5,-36.3 63.3,-53.5 -10,-23.8 -20.6,-47.3 -31.4,-70.6 -82.3,73.8 -165.2,146.9 -248.2,219.9"
         style="fill:#ffffff;fill-opacity:1;fill-rule:nonzero;stroke:none"
         id="path106" />
      <path
         d="m 621.914,2463.5 c 54.199,33 109.301,64.5 163.602,97.3 12.398,-21 24.699,-42.1 37.297,-63.1 -54.797,-33.4 -110.7,-65.1 -165.399,-98.7 -19.398,-14.3 -42.601,-33.6 -39.601,-60.6 0.203,-20.5 17.101,-36.6 33.203,-47 24.199,-6 48.398,2.6 69,14.9 53.597,31.1 106.699,63.1 159.898,94.8 12.602,-20.5 23.402,-42.5 39.102,-61 18.898,-5.3 27.5,16 39.199,26.3 11.199,-13.4 22.398,-26.8 33.797,-40.2 -16.196,-19.3 -36.297,-39.9 -63.297,-40.5 -20.699,0.2 -33.199,18.1 -46.5,31 -61,-31.4 -115.203,-79.7 -183.199,-95 -76.703,-16.9 -139.403,57.3 -147.203,127.3 -4.399,49 31.101,90 70.101,114.5"
         style="fill:#ffffff;fill-opacity:1;fill-rule:nonzero;stroke:none"
         id="path108" />
      <path
         d="m 9066.82,2466.8 c 13.3,22.1 26.7,44.1 40.29,66 71.9,-84.9 142.3,-171.2 214.31,-256.1 -14.6,-24.5 -29.51,-48.8 -44.71,-72.9 -106.7,26.4 -213.3,53.2 -320.4,78.2 9.6,25.1 25.6,46.9 39.91,69.4 80.29,-22.6 161.29,-43 240.49,-69.6 -60.49,58 -115,121.9 -169.89,185"
         style="fill:#ffffff;fill-opacity:1;fill-rule:nonzero;stroke:none"
         id="path110" />
      <path
         d="m 1053.92,2269.2 c 18.39,-17.4 33.69,-37.8 48.19,-58.5 -7.3,-22.3 -14.4,-44.6 -21.6,-67 -12.3,15.2 -24.4,30.4 -36.59,45.6 2.89,26.7 5.79,53.4 10,79.9"
         style="fill:#ffffff;fill-opacity:1;fill-rule:nonzero;stroke:none"
         id="path112" />
      <path
         d="m 922.113,2152.1 c -45.797,-17.1 -89.699,-53.4 -98.398,-103.8 -5.102,-40.4 34.601,-78.3 75.101,-70.5 52.2,7.7 101.098,48.4 116.294,99.3 13.6,51.5 -45.797,96.3 -92.997,75 z m -165.898,-83.9 c 9.898,97.5 114.398,175 210.598,153.4 58.397,-13.6 102.797,-65 115.397,-122.7 5.7,-13.5 6.1,-35.8 25,-37.5 14.8,7.4 22.5,22.7 32.1,35.2 12.9,-11.6 26,-23 39.2,-34.3 -15.5,-40.5 -65.5,-71.3 -103.3,-37.7 -31.6,-74 -115.597,-131.1 -197.296,-115.1 -70.398,15.9 -126,86.2 -121.699,158.7"
         style="fill:#ffffff;fill-opacity:1;fill-rule:nonzero;stroke:none"
         id="path114" />
      <path
         d="m 8842.62,2144.3 c 14.6,16.7 29,33.5 43.4,50.5 81.8,-66.6 160.6,-136.7 242.5,-203.3 -16.01,-20.2 -32.71,-39.9 -49.91,-59 -84.29,16.7 -169.09,31.4 -251.9,54.3 60.11,-46.7 118.41,-95.7 176,-145.6 -14.6,-17.1 -29.4,-34 -44.1,-51 -80.7,67.5 -160.6,136.1 -241.39,203.4 17.39,22.4 35.69,44 53.89,65.8 79.7,-16 160.6,-27.2 238.21,-52.1 -57.41,43.4 -113.01,89.1 -166.7,137"
         style="fill:#ffffff;fill-opacity:1;fill-rule:nonzero;stroke:none"
         id="path116" />
      <path
         d="m 943.914,1792.1 c 74.496,74.6 150.996,147.2 224.906,222.4 20.39,-19.5 40.3,-39.5 59.69,-60.1 -21.99,-77.6 -41.3,-156.1 -71.7,-231 47.7,52.6 98.1,102.7 148.6,152.7 16.11,-15.9 32.1,-31.9 48.1,-48.1 -75.1,-74.5 -148.4,-150.9 -225.8,-222.9 -17.8,17.6 -35.5,35.3 -53.2,53.1 24.7,82.2 46,165.4 76.6,245.6 -52.8,-53.8 -106.4,-106.8 -159.696,-160.2 -16,16.1 -31.902,32.1 -47.5,48.5"
         style="fill:#ffffff;fill-opacity:1;fill-rule:nonzero;stroke:none"
         id="path118" />
      <path
         d="m 8520.51,1903.3 c 12.9,11.5 25.4,23.4 37.7,35.6 25.2,-2.5 50.4,-5.5 75.6,-9.1 -11.79,-12.5 -24.09,-24.6 -36.79,-36.2 -12.5,1.8 -24.91,3.4 -37.21,4.9 1.1,-13.3 2.1,-26.7 3.01,-40.1 -12.21,-10.5 -24.3,-21 -36.31,-31.6 -2.5,25.5 -4.69,51 -6,76.5"
         style="fill:#ffffff;fill-opacity:1;fill-rule:nonzero;stroke:none"
         id="path120" />
      <path
         d="m 8627.22,1821.3 c 21.99,-35.6 42.19,-72.2 61.09,-109.4 16.5,14.6 32.6,29.6 48.4,45.1 -36.7,21.1 -73.5,42 -109.49,64.3 z m -4.6,77.4 c 97.3,-53.2 194.2,-107 291.39,-160.4 -18.89,-18.7 -38.4,-36.8 -57.9,-54.8 -24.4,13.7 -48.6,27.4 -72.5,41.5 -20.9,-20.6 -41.99,-41 -64.2,-60.2 13.21,-25 26.61,-50.1 39.71,-75.3 -18.61,-16.8 -36.5,-34.3 -54,-52.1 -51,98 -100.11,196.8 -150.71,295 22.41,22.5 46.1,43.6 68.21,66.3"
         style="fill:#ffffff;fill-opacity:1;fill-rule:nonzero;stroke:none"
         id="path122" />
      <path
         d="m 1250.21,1521 c -39.9,100.1 53.3,219.9 158.91,213.7 74.19,-4.5 137.2,-56.4 175.09,-117.4 -16.6,-12.2 -33.6,-24 -50.9,-35.2 -21.69,36.9 -54.19,71 -96.69,82.6 -62.6,14.2 -121.21,-47.2 -122.01,-107.2 0.6,-40.9 33.4,-69.9 64.8,-91 13.9,17.1 27.9,34.1 41.7,51.1 -12.29,10.3 -24.69,20.4 -36.99,30.6 12.4,14.9 24.8,29.9 36.99,44.8 31.3,-24.7 61.3,-51.1 92.3,-76.1 -35.5,-43.6 -71.89,-86.5 -107.5,-130 -63.3,27.4 -127.5,68.5 -155.7,134.1"
         style="fill:#ffffff;fill-opacity:1;fill-rule:nonzero;stroke:none"
         id="path124" />
      <path
         d="m 8399.12,1696.7 c 18.79,15.5 37.99,30.7 57.5,45.5 65.6,-82.5 131.59,-164.6 196.99,-247.3 -18.8,-15.4 -37.8,-30.4 -56.79,-45.4 -27.81,33.6 -54.6,67.9 -81.9,101.7 -30.71,-22.7 -59.71,-47.4 -89.91,-70.7 27.21,-34.2 54.6,-68.3 81.9,-102.5 -18.8,-15.9 -37.9,-31.2 -57.7,-45.8 -66,82.2 -131.39,164.9 -197.19,247.2 18.89,15.4 37.99,30.7 57.1,46 25,-31.4 50,-62.8 75.2,-94 30.49,23.1 59.89,47.6 90.09,71.1 -25.6,31.1 -50.8,62.4 -75.29,94.2"
         style="fill:#ffffff;fill-opacity:1;fill-rule:nonzero;stroke:none"
         id="path126" />
      <path
         d="m 8148.41,1506.6 c 18.5,12.6 36.91,25.3 55.11,38.3 60.29,-87 117.29,-176.4 177.39,-263.6 -21.39,-14.1 -42.7,-28.2 -64,-42.4 -75.89,38.6 -151.79,77.1 -225.6,119.6 44.3,-60.5 85.6,-123.1 126.9,-185.8 -19,-12.3 -37.89,-24.9 -56.7,-37.5 -58.3,87.9 -115.9,176.3 -176,262.9 23.61,16 47.31,31.9 71.11,47.5 71.49,-36.2 144.8,-69.3 211.9,-113.5 -41.5,57.2 -81.3,115.5 -120.11,174.5"
         style="fill:#ffffff;fill-opacity:1;fill-rule:nonzero;stroke:none"
         id="path128" />
      <path
         d="m 1759.41,1439.8 c -12.89,-20 -25.8,-40 -38.8,-60 17.2,-11.3 34.4,-22.8 51.6,-34.3 -10.59,-16.2 -21.2,-32.4 -31.6,-48.8 -17.4,11.7 -34.9,23.3 -52.5,34.6 -14.19,-21.9 -28.5,-43.7 -42.9,-65.4 30.9,-21.2 69,-46 107.9,-31.3 42.7,17 72,59.3 81.5,103.2 6.81,48.5 -37.3,82 -75.2,102 z m -32.5,83.4 c 58.1,-30.4 121,-61.4 159.3,-116.8 71,-106.1 -46.7,-266.9 -169.1,-237 -62.1,13.8 -114.4,52.8 -163.09,91.8 24.49,36.8 48.49,73.8 72.69,110.7 -9.2,6.2 -18.3,12.2 -27.5,18.2 10.6,16.2 21.2,32.3 31.7,48.4 9.5,-6 18.9,-12.1 28.4,-18.3 21.7,34.9 44.81,68.8 67.6,103"
         style="fill:#ffffff;fill-opacity:1;fill-rule:nonzero;stroke:none"
         id="path130" />
      <path
         d="m 1980.81,1155.1 c 19.2,-10.9 38.7,-21.4 58.6,-31.1 9.2,40.8 19.3,81.3 28.3,122 -26.8,-32.3 -57.4,-61.1 -86.9,-90.9 z m -161.79,-65.5 c 80.59,75.5 158.79,153.6 239.49,229.1 27.7,-15.6 55.8,-30.8 82.91,-47.7 -24.11,-107.3 -46.21,-215.2 -68.31,-322.898 -23.5,12.3 -46.79,25.097 -69.8,38.199 5.9,27.499 12.1,55.099 18.11,82.599 -25.61,14.1 -51.11,28.4 -76.71,42.6 -19.7,-19.6 -39.4,-39.3 -59,-59.1 -22.4,12.1 -44.6,24.6 -66.69,37.2"
         style="fill:#ffffff;fill-opacity:1;fill-rule:nonzero;stroke:none"
         id="path132" />
      <path
         d="m 7630.51,1281.5 c 21.8,13.6 44.3,26 67.31,37.5 21.3,-10.7 42.69,-21.4 63.89,-32.7 -17.7,-9.5 -35.2,-19 -52.79,-28.6 -26.01,8.4 -52.3,16.2 -78.41,23.8"
         style="fill:#ffffff;fill-opacity:1;fill-rule:nonzero;stroke:none"
         id="path134" />
      <path
         d="m 7761.51,1201.9 c 11.5,-40.2 20.91,-81 29.71,-122 19.29,10.4 38.7,20.7 57.9,31.5 -30.51,28.9 -58.61,60.1 -87.61,90.5 z m -67.19,30.2 c 27.79,15.7 56.09,30.7 84.2,45.9 79.1,-77.4 157.7,-155.3 237.29,-232.2 -23.7,-13.1 -47.6,-25.9 -71.89,-37.8 -19.2,19.9 -38.71,39.5 -57.9,59.1 -26.3,-13.5 -52.3,-27.4 -78.11,-41.8 6.01,-26.902 12.21,-53.698 18.31,-80.601 -22.01,-12.5 -44.31,-24.699 -66.3,-37.097 -21.11,108.398 -42.9,216.598 -65.6,324.498"
         style="fill:#ffffff;fill-opacity:1;fill-rule:nonzero;stroke:none"
         id="path136" />
      <path
         d="m 2267.21,1206 c 21.91,-10.4 43.7,-21.1 65.5,-31.9 -47,-94.5 -92.5,-189.702 -140.4,-283.6 -22.2,10.699 -44.5,21 -66.9,31 46.9,95.1 94.9,189.5 141.8,284.5"
         style="fill:#ffffff;fill-opacity:1;fill-rule:nonzero;stroke:none"
         id="path138" />
      <path
         d="m 7621.91,1193.5 c 13.21,-110.8 24.8,-221.699 36.7,-332.699 -25.7,-11.903 -51.3,-24 -77.3,-35.399 -74.09,81.996 -149.2,163.2 -224.8,243.898 24.2,11.9 48.61,23.3 73.01,34.9 54.2,-63.1 110.8,-124.399 161.39,-190.7 -15.7,82 -27.7,164.6 -38.4,247.3 23.2,10.7 46.41,21.5 69.4,32.7"
         style="fill:#ffffff;fill-opacity:1;fill-rule:nonzero;stroke:none"
         id="path140" />
      <path
         d="m 2482.61,1100.5 c 22.1,-9 44.2,-18.1 66.51,-26.9 -12.21,-38.4 -29.71,-74.901 -44.51,-112.401 34.7,-15.097 69.8,-29.398 104.7,-44.097 16.8,36.597 31.2,74.296 47.5,110.998 22.4,-9.3 44.81,-18.6 67.21,-27.8 -39.81,-97.499 -81.51,-194.198 -120.81,-291.902 -23.1,8.602 -45.8,18 -68.3,27.704 16.9,40.398 33.7,80.796 50.4,121.199 -35.1,14.801 -70.1,29.699 -105.3,44.097 -17.8,-40.097 -34,-80.898 -51.19,-121.296 -22.4,9.5 -44.8,18.796 -67.2,28 39.49,97.796 81.39,194.698 120.99,292.398"
         style="fill:#ffffff;fill-opacity:1;fill-rule:nonzero;stroke:none"
         id="path142" />
      <path
         d="m 7175.32,998.801 c 22.89,9.799 46.19,18.399 70.09,25.599 35.3,-98.9 77.3,-195.298 113.51,-293.9 -22.61,-8.801 -45.2,-17.598 -68.01,-25.898 -38.29,98.199 -77.1,196.097 -115.59,294.199"
         style="fill:#ffffff;fill-opacity:1;fill-rule:nonzero;stroke:none"
         id="path144" />
      <path
         d="m 6936.91,991.398 c 16.9,6.301 33.9,12.502 50.91,18.602 21.79,-13.5 43.69,-26.898 65.49,-40.801 -27,-12.801 -56.09,-22.301 -80.49,0.699 -4.21,-33.296 -34.41,-43.097 -62.61,-50.5 8.51,24.204 17.5,48.102 26.7,72"
         style="fill:#ffffff;fill-opacity:1;fill-rule:nonzero;stroke:none"
         id="path146" />
      <path
         d="m 1890.01,987.5 c 21.2,15.2 58.81,-0.898 53.7,-28.898 -0.6,-22.301 -24.2,-39.5 -45.4,-31.5 -25.5,7.597 -30.3,46.199 -8.3,60.398"
         style="fill:#ffffff;fill-opacity:1;fill-rule:nonzero;stroke:none"
         id="path148" />
      <path
         d="m 2843.11,881.199 c -47.99,-30.597 -72.2,-94.301 -60.1,-149.301 9.81,-42.097 64.7,-64.699 100.3,-38.597 42.3,32 63.91,91.097 53.51,142.898 -6.7,41.199 -57.5,65.403 -93.71,45 z M 2839.12,947 c 66.59,9.398 142.7,-24.699 166.79,-90.301 24.3,-70 -0.59,-152.597 -55.1,-201.597 -73.99,-66.102 -212.1,-28.102 -239.8,68 -26.3,91.199 29.2,208.199 128.11,223.898"
         style="fill:#ffffff;fill-opacity:1;fill-rule:nonzero;stroke:none"
         id="path150" />
      <path
         d="m 6991.91,874.898 c -47.5,-30.199 -37.7,-96.597 -15.8,-140 16.51,-38.597 62.81,-72.699 104.6,-49.597 53.41,29.699 41.51,105 14.7,149.398 -18.3,36.699 -64.8,65 -103.5,40.199 z m -2.99,62.801 c 52.19,17.5 115.29,6 152.1,-36.597 51.6,-56.204 70.8,-149 28.99,-215.801 -36.7,-53.102 -108.99,-80.801 -171.4,-64 -80.79,24.101 -123.6,116.699 -113.29,196.199 6.59,56.301 50,103.898 103.6,120.199"
         style="fill:#ffffff;fill-opacity:1;fill-rule:nonzero;stroke:none"
         id="path152" />
      <path
         d="m 6725.32,847.301 c 23.49,6.597 46.99,13.199 70.59,19.801 27.81,-102 56.91,-203.602 84.9,-305.5 -23.7,-6.2 -47.4,-12.5 -71.09,-18.7 -10.71,42.098 -23.01,83.899 -34.6,125.7 -37.11,-9.5 -74.1,-19.801 -110.8,-30.801 11.7,-42.199 24.69,-84.102 34.49,-126.903 -22.79,-5.796 -45.4,-12.199 -67.79,-19.199 -31.7,100.903 -58.01,203.5 -86.41,305.403 23.5,6.699 47.21,13.097 71.3,18.097 9.1,-38.699 20.51,-76.801 31.2,-115.097 37.01,10.398 74.11,20.398 111,31.398 -11.6,38.5 -22,77.199 -32.79,115.801"
         style="fill:#ffffff;fill-opacity:1;fill-rule:nonzero;stroke:none"
         id="path154" />
      <path
         d="m 3098.21,807.102 c 66.11,52.199 163.5,37.699 228.21,-9.704 -10,-17.296 -20.11,-34.597 -30.21,-51.898 -35.4,23.699 -81,43.5 -123.2,25.801 -54.2,-26.102 -78.6,-103.903 -46.59,-155.403 26.2,-37.699 75.8,-47.5 118.9,-46.597 -3.21,-19 0.79,-40.801 -8.3,-58.102 -57.7,-3.297 -118.51,14.301 -161.51,53.699 -65.99,66.403 -45.99,185.403 22.7,242.204"
         style="fill:#ffffff;fill-opacity:1;fill-rule:nonzero;stroke:none"
         id="path156" />
      <path
         d="m 6273.92,797.902 c -0.81,23.399 19.19,25.996 37.5,29.297 0.2,-18.699 6.2,-39.801 -4.51,-57 -21.3,-21 -51.4,-7.398 -76.2,-2.898 -1.79,-6 -5.3,-18.102 -6.99,-24.102 -10.9,-1.5 -21.81,-3 -32.61,-4.597 0.6,22.597 -6.39,51.898 17.7,65.296 21.8,3.801 43.61,-2.699 65.11,-5.996"
         style="fill:#ffffff;fill-opacity:1;fill-rule:nonzero;stroke:none"
         id="path158" />
      <path
         d="m 3405.71,462.801 c 24.1,102.699 43,206.5 68.3,308.898 23.01,-5.199 46.11,-10.199 69.3,-15 -8.1,-44.199 -19.6,-87.801 -27.2,-132.097 38.81,37.699 77.9,75.097 117.2,112.398 28.91,-6.398 57.9,-12.199 86.81,-18.898 -41,-38.903 -85.8,-73.5 -129.01,-109.903 23.7,-66.898 45.6,-134.398 69.6,-201.199 -27.8,6.602 -55.7,12.602 -83.6,18.602 -15.69,49.199 -31.7,98.296 -46.5,147.699 -10.69,-8.5 -21.29,-17.199 -31.9,-25.903 -7.4,-33.296 -14.39,-66.796 -21.6,-100.199 -23.9,4.801 -47.7,9.903 -71.4,15.602"
         style="fill:#ffffff;fill-opacity:1;fill-rule:nonzero;stroke:none"
         id="path160" />
      <path
         d="m 6265.21,678.102 c 0.7,-42.7 -2.39,-85.403 -5.69,-128.102 21.59,4.602 43.19,9 65,13.102 -20.11,38.199 -39.31,76.796 -59.31,115 z m -53.19,47.3 c 30.99,5.297 61.79,11.598 92.7,17.598 52.99,-96.699 106.39,-193.102 159.09,-289.898 -25.7,-5.301 -51.3,-10.301 -76.7,-16 -14,24.597 -27.5,49.5 -40.6,74.398 -28.6,-6.199 -57.19,-12.199 -85.9,-17.699 -2.3,-27.903 -4.39,-55.899 -6.2,-84 -24.69,-4.602 -49.4,-9.602 -74,-14.699 11.1,110.097 20.2,220.3 31.61,330.3"
         style="fill:#ffffff;fill-opacity:1;fill-rule:nonzero;stroke:none"
         id="path162" />
      <path
         d="m 3757.31,711.699 c 24.11,-3.699 48.2,-7.898 72.3,-12.301 -7.1,-39.5 -13.3,-79.097 -20.09,-118.699 37.79,-6.398 75.8,-12.097 113.59,-18.5 7.4,39.801 12.01,80.102 20.9,119.602 23.41,-4.301 47,-8.699 70.6,-12.602 -16.5,-104 -34.89,-207.801 -50.49,-312 -24.31,3.903 -48.51,8 -72.7,11.801 6.79,43.5 15.6,86.699 20.49,130.5 -37.3,5.602 -74.4,11.602 -111.5,18 -8.9,-43 -15.2,-86.602 -22.7,-130 -24,4.301 -47.99,8.301 -72.1,11.699 17.9,104.102 34.4,208.301 51.7,312.5"
         style="fill:#ffffff;fill-opacity:1;fill-rule:nonzero;stroke:none"
         id="path164" />
      <path
         d="m 6022.22,689.398 c 27.5,4.301 55,8.801 82.59,12.903 -21.09,-55.5 -43.19,-110.699 -64,-166.403 39,-48.5 78.6,-96.597 117.4,-145.296 -28.4,-2.602 -56.79,-13.301 -85.2,-10.704 -24.7,32.602 -48,66.204 -70.79,100 -10,-39.597 -22.21,-78.597 -32.01,-118.199 -27.99,-5.097 -56.2,-9.301 -84.1,-14.199 22.7,57.102 44.21,114.699 66,172.199 -36.3,47.5 -73.8,94.102 -110.89,140.903 27.99,5.398 56.2,9.597 84.49,12.898 21.51,-32.699 43.61,-65 66,-97.199 9,38 19.2,75.801 30.51,113.097"
         style="fill:#ffffff;fill-opacity:1;fill-rule:nonzero;stroke:none"
         id="path166" />
      <path
         d="m 4171.42,585.699 c -45.51,-26.5 -56.61,-88.5 -48.8,-136.597 5.09,-43.102 51.3,-81 94.29,-61.301 52.3,28.199 62.3,98.097 49.6,151 -8.5,40.301 -57.7,69.5 -95.09,46.898 z m -29.4,56 c 57.59,21 128.99,8.403 170.89,-38.097 48.3,-58.2 45.2,-145.602 10,-209.602 -50.89,-93.102 -206.29,-91.898 -257.9,-0.199 -46.9,83.5 -17.19,211.801 77.01,247.898"
         style="fill:#ffffff;fill-opacity:1;fill-rule:nonzero;stroke:none"
         id="path168" />
      <path
         d="m 5537.31,607.102 c 49.91,38.398 118.3,45.097 178.2,31.097 -3.29,-19.898 -6.19,-39.898 -8.69,-60.097 -36.01,9.898 -76.11,10.398 -109.11,-8.704 -65.29,-40.296 -53.99,-156.398 17.3,-183.898 36.21,-13.199 74.8,-1.301 110.2,9.102 4.6,-18.704 9.71,-37.602 14.91,-56.403 -65.91,-25.898 -149.41,-34.097 -207.81,13 -71.9,64.301 -73.19,195.801 5,255.903"
         style="fill:#ffffff;fill-opacity:1;fill-rule:nonzero;stroke:none"
         id="path170" />
      <path
         d="m 4482.82,440.199 c 22.1,-1.5 44.2,-3 66.39,-5.199 -9.29,41.5 -19.49,82.699 -26.2,124.602 -12.89,-39.903 -26.19,-79.801 -40.19,-119.403 z m -1.81,180.203 c 31.7,-1.3 63.4,-3.601 95.1,-5.504 25.91,-107.296 52.5,-214.398 78.41,-321.699 -26.31,1.5 -52.5,3 -78.71,4.602 -6.69,27.5 -13.1,55 -19.6,82.398 -29.19,1.5 -58.39,3.5 -87.5,5.903 -9.39,-26.801 -18.59,-53.704 -28.1,-80.5 -25.2,2 -50.29,3.699 -75.29,6.097 39.49,102.5 77.1,205.801 115.69,308.703"
         style="fill:#ffffff;fill-opacity:1;fill-rule:nonzero;stroke:none"
         id="path172" />
      <path
         d="m 5261.42,553.801 c -59.2,-29.199 -60,-113.903 -34.11,-166.301 16.41,-39.398 73.2,-54 104.2,-23 36.8,34.301 34.71,92.801 21.5,137.398 -10.7,37.704 -52.4,68.504 -91.59,51.903 z m -18.31,56.601 c 49.71,11.7 107.91,6.297 146.3,-30.504 52.3,-50.796 60.4,-134.496 36.81,-200.699 -33.91,-93.699 -169.8,-120.097 -241.21,-54.301 -84.3,79.301 -62.3,254.301 58.1,285.504"
         style="fill:#ffffff;fill-opacity:1;fill-rule:nonzero;stroke:none"
         id="path174" />
      <path
         d="m 4820.91,605 c 24.8,0.102 49.7,0.102 74.6,-0.102 -3.89,-39.796 -3.89,-79.796 -2.89,-119.898 38.39,0.801 76.79,-0.699 115.2,-3.199 0.19,41.301 -0.11,82.597 0.29,123.801 24.8,-1 49.51,-2.7 74.4,-3.801 -4.69,-104.5 0,-209.301 -4.8,-313.801 -24,0 -47.9,0.102 -71.7,0 -0.3,44.398 -0.69,88.699 2.2,132.898 -38.6,0.102 -77.2,0.204 -115.7,0 0.5,-44.296 -3.19,-88.597 -2.79,-132.898 -23.91,2.5 -47.81,3.398 -71.71,3.199 -1.8,104.699 5.3,209.203 2.9,313.801"
         style="fill:#ffffff;fill-opacity:1;fill-rule:nonzero;stroke:none"
         id="path176" />
      <path
         d="m 2771.21,541.602 c -32.09,12.398 -18.7,69.898 16.9,62.398 25.1,0.801 32.21,-25.398 31.5,-45.602 -12.39,-12.398 -29.89,-28.898 -48.4,-16.796"
         style="fill:#ffffff;fill-opacity:1;fill-rule:nonzero;stroke:none"
         id="path178" />
      <path
         d="m 7091.31,593.602 c 23.41,20.199 60.71,-6.5 52.3,-35.102 -4.2,-29.398 -51.5,-34.5 -61.59,-7.301 -9.31,13.801 -3.01,32.903 9.29,42.403"
         style="fill:#ffffff;fill-opacity:1;fill-rule:nonzero;stroke:none"
         id="path180" />
      <path
         d="m 5281.51,256 c 36,21.801 69,-35.398 34.71,-57.699 -37.01,-26.199 -74.6,38.097 -34.71,57.699"
         style="fill:#ffffff;fill-opacity:1;fill-rule:nonzero;stroke:none"
         id="path182" />
      <path
         d="m 5281.51,256 c -39.89,-19.602 -2.3,-83.898 34.71,-57.699 34.29,22.301 1.29,79.5 -34.71,57.699 z m 1809.8,337.602 c -12.3,-9.5 -18.6,-28.602 -9.29,-42.403 10.09,-27.199 57.39,-22.097 61.59,7.301 8.41,28.602 -28.89,55.301 -52.3,35.102 z m -4320.1,-52 c 18.51,-12.102 36.01,4.398 48.4,16.796 0.71,20.204 -6.4,46.403 -31.5,45.602 -35.6,7.5 -48.99,-50 -16.9,-62.398 z M 4820.91,605 c 2.4,-104.598 -4.7,-209.102 -2.9,-313.801 23.9,0.199 47.8,-0.699 71.71,-3.199 -0.4,44.301 3.29,88.602 2.79,132.898 38.5,0.204 77.1,0.102 115.7,0 -2.89,-44.199 -2.5,-88.5 -2.2,-132.898 23.8,0.102 47.7,0 71.7,0 4.8,104.5 0.11,209.301 4.8,313.801 -24.89,1.101 -49.6,2.801 -74.4,3.801 -0.4,-41.204 -0.1,-82.5 -0.29,-123.801 -38.41,2.5 -76.81,4 -115.2,3.199 -1,40.102 -1,80.102 2.89,119.898 -24.9,0.204 -49.8,0.204 -74.6,0.102 z m 422.2,5.402 c -120.4,-31.203 -142.4,-206.203 -58.1,-285.504 71.41,-65.796 207.3,-39.398 241.21,54.301 23.59,66.203 15.49,149.903 -36.81,200.699 -38.39,36.801 -96.59,42.204 -146.3,30.504 z m -762.1,10 c -38.59,-102.902 -76.2,-206.203 -115.69,-308.703 25,-2.398 50.09,-4.097 75.29,-6.097 9.51,26.796 18.71,53.699 28.1,80.5 29.11,-2.403 58.31,-4.403 87.5,-5.903 6.5,-27.398 12.91,-54.898 19.6,-82.398 26.21,-1.602 52.4,-3.102 78.71,-4.602 -25.91,107.301 -52.5,214.403 -78.41,321.699 -31.7,1.903 -63.4,4.204 -95.1,5.504 z m 1056.3,-13.3 c -78.19,-60.102 -76.9,-191.602 -5,-255.903 58.4,-47.097 141.9,-38.898 207.81,-13 -5.2,18.801 -10.31,37.699 -14.91,56.403 -35.4,-10.403 -73.99,-22.301 -110.2,-9.102 -71.29,27.5 -82.59,143.602 -17.3,183.898 33,19.102 73.1,18.602 109.11,8.704 2.5,20.199 5.4,40.199 8.69,60.097 -59.9,14 -128.29,7.301 -178.2,-31.097 z m -1395.29,34.597 c -94.2,-36.097 -123.91,-164.398 -77.01,-247.898 51.61,-91.699 207.01,-92.903 257.9,0.199 35.2,64 38.3,151.402 -10,209.602 -41.9,46.5 -113.3,59.097 -170.89,38.097 z m 1880.2,47.699 c -11.31,-37.296 -21.51,-75.097 -30.51,-113.097 -22.39,32.199 -44.49,64.5 -66,97.199 -28.29,-3.301 -56.5,-7.5 -84.49,-12.898 37.09,-46.801 74.59,-93.403 110.89,-140.903 -21.79,-57.5 -43.3,-115.097 -66,-172.199 27.9,4.898 56.11,9.102 84.1,14.199 9.8,39.602 22.01,78.602 32.01,118.199 22.79,-33.796 46.09,-67.398 70.79,-100 28.41,-2.597 56.8,8.102 85.2,10.704 -38.8,48.699 -78.4,96.796 -117.4,145.296 20.81,55.704 42.91,110.903 64,166.403 -27.59,-4.102 -55.09,-8.602 -82.59,-12.903 z m -2264.91,22.301 c -17.3,-104.199 -33.8,-208.398 -51.7,-312.5 24.11,-3.398 48.1,-7.398 72.1,-11.699 7.5,43.398 13.8,87 22.7,130 37.1,-6.398 74.2,-12.398 111.5,-18 -4.89,-43.801 -13.7,-87 -20.49,-130.5 24.19,-3.801 48.39,-7.898 72.7,-11.801 15.6,104.199 33.99,208 50.49,312 -23.6,3.903 -47.19,8.301 -70.6,12.602 -8.89,-39.5 -13.5,-79.801 -20.9,-119.602 -37.79,6.403 -75.8,12.102 -113.59,18.5 6.79,39.602 12.99,79.199 20.09,118.699 -24.1,4.403 -48.19,8.602 -72.3,12.301 z m 2454.71,13.703 c -11.41,-110 -20.51,-220.203 -31.61,-330.3 24.6,5.097 49.31,10.097 74,14.699 1.81,28.101 3.9,56.097 6.2,84 28.71,5.5 57.3,11.5 85.9,17.699 13.1,-24.898 26.6,-49.801 40.6,-74.398 25.4,5.699 51,10.699 76.7,16 -52.7,96.796 -106.1,193.199 -159.09,289.898 -30.91,-6 -61.71,-12.301 -92.7,-17.598 z M 3405.71,462.801 c 23.7,-5.699 47.5,-10.801 71.4,-15.602 7.21,33.403 14.2,66.903 21.6,100.199 10.61,8.704 21.21,17.403 31.9,25.903 14.8,-49.403 30.81,-98.5 46.5,-147.699 27.9,-6 55.8,-12 83.6,-18.602 -24,66.801 -45.9,134.301 -69.6,201.199 43.21,36.403 88.01,71 129.01,109.903 -28.91,6.699 -57.9,12.5 -86.81,18.898 -39.3,-37.301 -78.39,-74.699 -117.2,-112.398 7.6,44.296 19.1,87.898 27.2,132.097 -23.19,4.801 -46.29,9.801 -69.3,15 -25.3,-102.398 -44.2,-206.199 -68.3,-308.898 z m 2868.21,335.101 c -21.5,3.297 -43.31,9.797 -65.11,5.996 -24.09,-13.398 -17.1,-42.699 -17.7,-65.296 10.8,1.597 21.71,3.097 32.61,4.597 1.69,6 5.2,18.102 6.99,24.102 24.8,-4.5 54.9,-18.102 76.2,2.898 10.71,17.199 4.71,38.301 4.51,57 -18.31,-3.301 -38.31,-5.898 -37.5,-29.297 z m -3175.71,9.2 c -68.69,-56.801 -88.69,-175.801 -22.7,-242.204 43,-39.398 103.81,-56.996 161.51,-53.699 9.09,17.301 5.09,39.102 8.3,58.102 -43.1,-0.903 -92.7,8.898 -118.9,46.597 -32.01,51.5 -7.61,129.301 46.59,155.403 42.2,17.699 87.8,-2.102 123.2,-25.801 10.1,17.301 20.21,34.602 30.21,51.898 -64.71,47.403 -162.1,61.903 -228.21,9.704 z m 3627.11,40.199 c 10.79,-38.602 21.19,-77.301 32.79,-115.801 -36.89,-11 -73.99,-21 -111,-31.398 -10.69,38.296 -22.1,76.398 -31.2,115.097 -24.09,-5 -47.8,-11.398 -71.3,-18.097 28.4,-101.903 54.71,-204.5 86.41,-305.403 22.39,7 45,13.403 67.79,19.199 -9.8,42.801 -22.79,84.704 -34.49,126.903 36.7,11 73.69,21.301 110.8,30.801 11.59,-41.801 23.89,-83.602 34.6,-125.7 23.69,6.2 47.39,12.5 71.09,18.7 -27.99,101.898 -57.09,203.5 -84.9,305.5 -23.6,-6.602 -47.1,-13.204 -70.59,-19.801 z m 263.6,90.398 c -53.6,-16.301 -97.01,-63.898 -103.6,-120.199 -10.31,-79.5 32.5,-172.098 113.29,-196.199 62.41,-16.801 134.7,10.898 171.4,64 41.81,66.801 22.61,159.597 -28.99,215.801 -36.81,42.597 -99.91,54.097 -152.1,36.597 z M 2839.12,947 c -98.91,-15.699 -154.41,-132.699 -128.11,-223.898 27.7,-96.102 165.81,-134.102 239.8,-68 54.51,49 79.4,131.597 55.1,201.597 -24.09,65.602 -100.2,99.699 -166.79,90.301 z m -949.11,40.5 c -22,-14.199 -17.2,-52.801 8.3,-60.398 21.2,-8 44.8,9.199 45.4,31.5 5.11,28 -32.5,44.098 -53.7,28.898 z m 5046.9,3.898 c -9.2,-23.898 -18.19,-47.796 -26.7,-72 28.2,7.403 58.4,17.204 62.61,50.5 24.4,-23 53.49,-13.5 80.49,-0.699 -21.8,13.903 -43.7,27.301 -65.49,40.801 -17.01,-6.1 -34.01,-12.301 -50.91,-18.602 z m 238.41,7.403 c 38.49,-98.102 77.3,-196 115.59,-294.199 22.81,8.3 45.4,17.097 68.01,25.898 -36.21,98.602 -78.21,195 -113.51,293.9 -23.9,-7.2 -47.2,-15.8 -70.09,-25.599 z M 2482.61,1100.5 c -39.6,-97.7 -81.5,-194.602 -120.99,-292.398 22.4,-9.204 44.8,-18.5 67.2,-28 17.19,40.398 33.39,81.199 51.19,121.296 35.2,-14.398 70.2,-29.296 105.3,-44.097 -16.7,-40.403 -33.5,-80.801 -50.4,-121.199 22.5,-9.704 45.2,-19.102 68.3,-27.704 39.3,97.704 81,194.403 120.81,291.902 -22.4,9.2 -44.81,18.5 -67.21,27.8 -16.3,-36.702 -30.7,-74.401 -47.5,-110.998 -34.9,14.699 -70,29 -104.7,44.097 14.8,37.5 32.3,74.001 44.51,112.401 -22.31,8.8 -44.41,17.9 -66.51,26.9 z m 5139.3,93 c -22.99,-11.2 -46.2,-22 -69.4,-32.7 10.7,-82.7 22.7,-165.3 38.4,-247.3 -50.59,66.301 -107.19,127.6 -161.39,190.7 -24.4,-11.6 -48.81,-23 -73.01,-34.9 75.6,-80.698 150.71,-161.902 224.8,-243.898 26,11.399 51.6,23.496 77.3,35.399 -11.9,111 -23.49,221.899 -36.7,332.699 z m -5354.7,12.5 c -46.9,-95 -94.9,-189.4 -141.8,-284.5 22.4,-10 44.7,-20.301 66.9,-31 47.9,93.898 93.4,189.1 140.4,283.6 -21.8,10.8 -43.59,21.5 -65.5,31.9 z m 5427.11,26.1 c 22.7,-107.9 44.49,-216.1 65.6,-324.498 21.99,12.398 44.29,24.597 66.3,37.097 -6.1,26.903 -12.3,53.699 -18.31,80.601 25.81,14.4 51.81,28.3 78.11,41.8 19.19,-19.6 38.7,-39.2 57.9,-59.1 24.29,11.9 48.19,24.7 71.89,37.8 -79.59,76.9 -158.19,154.8 -237.29,232.2 -28.11,-15.2 -56.41,-30.2 -84.2,-45.9 z m -63.81,49.4 c 26.11,-7.6 52.4,-15.4 78.41,-23.8 17.59,9.6 35.09,19.1 52.79,28.6 -21.2,11.3 -42.59,22 -63.89,32.7 -23.01,-11.5 -45.51,-23.9 -67.31,-37.5 z M 1819.02,1089.6 c 22.09,-12.6 44.29,-25.1 66.69,-37.2 19.6,19.8 39.3,39.5 59,59.1 25.6,-14.2 51.1,-28.5 76.71,-42.6 -6.01,-27.5 -12.21,-55.1 -18.11,-82.599 23.01,-13.102 46.3,-25.899 69.8,-38.199 22.1,107.698 44.2,215.598 68.31,322.898 -27.11,16.9 -55.21,32.1 -82.91,47.7 -80.7,-75.5 -158.9,-153.6 -239.49,-229.1 z m -92.11,433.6 c -22.79,-34.2 -45.9,-68.1 -67.6,-103 -9.5,6.2 -18.9,12.3 -28.4,18.3 -10.5,-16.1 -21.1,-32.2 -31.7,-48.4 9.2,-6 18.3,-12 27.5,-18.2 -24.2,-36.9 -48.2,-73.9 -72.69,-110.7 48.69,-39 100.99,-78 163.09,-91.8 122.4,-29.9 240.1,130.9 169.1,237 -38.3,55.4 -101.2,86.4 -159.3,116.8 z m 6421.5,-16.6 c 38.81,-59 78.61,-117.3 120.11,-174.5 -67.1,44.2 -140.41,77.3 -211.9,113.5 -23.8,-15.6 -47.5,-31.5 -71.11,-47.5 60.1,-86.6 117.7,-175 176,-262.9 18.81,12.6 37.7,25.2 56.7,37.5 -41.3,62.7 -82.6,125.3 -126.9,185.8 73.81,-42.5 149.71,-81 225.6,-119.6 21.3,14.2 42.61,28.3 64,42.4 -60.1,87.2 -117.1,176.6 -177.39,263.6 -18.2,-13 -36.61,-25.7 -55.11,-38.3 z m 250.71,190.1 c 24.49,-31.8 49.69,-63.1 75.29,-94.2 -30.2,-23.5 -59.6,-48 -90.09,-71.1 -25.2,31.2 -50.2,62.6 -75.2,94 -19.11,-15.3 -38.21,-30.6 -57.1,-46 65.8,-82.3 131.19,-165 197.19,-247.2 19.8,14.6 38.9,29.9 57.7,45.8 -27.3,34.2 -54.69,68.3 -81.9,102.5 30.2,23.3 59.2,48 89.91,70.7 27.3,-33.8 54.09,-68.1 81.9,-101.7 18.99,15 37.99,30 56.79,45.4 -65.4,82.7 -131.39,164.8 -196.99,247.3 -19.51,-14.8 -38.71,-30 -57.5,-45.5 z M 1250.21,1521 c 28.2,-65.6 92.4,-106.7 155.7,-134.1 35.61,43.5 72,86.4 107.5,130 -31,25 -61,51.4 -92.3,76.1 -12.19,-14.9 -24.59,-29.9 -36.99,-44.8 12.3,-10.2 24.7,-20.3 36.99,-30.6 -13.8,-17 -27.8,-34 -41.7,-51.1 -31.4,21.1 -64.2,50.1 -64.8,91 0.8,60 59.41,121.4 122.01,107.2 42.5,-11.6 75,-45.7 96.69,-82.6 17.3,11.2 34.3,23 50.9,35.2 -37.89,61 -100.9,112.9 -175.09,117.4 -105.61,6.2 -198.81,-113.6 -158.91,-213.7 z m 7372.41,377.7 c -22.11,-22.7 -45.8,-43.8 -68.21,-66.3 50.6,-98.2 99.71,-197 150.71,-295 17.5,17.8 35.39,35.3 54,52.1 -13.1,25.2 -26.5,50.3 -39.71,75.3 22.21,19.2 43.3,39.6 64.2,60.2 23.9,-14.1 48.1,-27.8 72.5,-41.5 19.5,18 39.01,36.1 57.9,54.8 -97.19,53.4 -194.09,107.2 -291.39,160.4 z m -102.11,4.6 c 1.31,-25.5 3.5,-51 6,-76.5 12.01,10.6 24.1,21.1 36.31,31.6 -0.91,13.4 -1.91,26.8 -3.01,40.1 12.3,-1.5 24.71,-3.1 37.21,-4.9 12.7,11.6 25,23.7 36.79,36.2 -25.2,3.6 -50.4,6.6 -75.6,9.1 -12.3,-12.2 -24.8,-24.1 -37.7,-35.6 z M 943.914,1792.1 c 15.598,-16.4 31.5,-32.4 47.5,-48.5 53.296,53.4 106.896,106.4 159.696,160.2 -30.6,-80.2 -51.9,-163.4 -76.6,-245.6 17.7,-17.8 35.4,-35.5 53.2,-53.1 77.4,72 150.7,148.4 225.8,222.9 -16,16.2 -31.99,32.2 -48.1,48.1 -50.5,-50 -100.9,-100.1 -148.6,-152.7 30.4,74.9 49.71,153.4 71.7,231 -19.39,20.6 -39.3,40.6 -59.69,60.1 -73.91,-75.2 -150.41,-147.8 -224.906,-222.4 z m 7898.706,352.2 c 53.69,-47.9 109.29,-93.6 166.7,-137 -77.61,24.9 -158.51,36.1 -238.21,52.1 -18.2,-21.8 -36.5,-43.4 -53.89,-65.8 80.79,-67.3 160.69,-135.9 241.39,-203.4 14.7,17 29.5,33.9 44.1,51 -57.59,49.9 -115.89,98.9 -176,145.6 82.81,-22.9 167.61,-37.6 251.9,-54.3 17.2,19.1 33.9,38.8 49.91,59 -81.9,66.6 -160.7,136.7 -242.5,203.3 -14.4,-17 -28.8,-33.8 -43.4,-50.5 z M 756.215,2068.2 c -4.301,-72.5 51.301,-142.8 121.699,-158.7 81.699,-16 165.696,41.1 197.296,115.1 37.8,-33.6 87.8,-2.8 103.3,37.7 -13.2,11.3 -26.3,22.7 -39.2,34.3 -9.6,-12.5 -17.3,-27.8 -32.1,-35.2 -18.9,1.7 -19.3,24 -25,37.5 -12.6,57.7 -57,109.1 -115.397,122.7 -96.2,21.6 -200.7,-55.9 -210.598,-153.4 z m 297.705,201 c -4.21,-26.5 -7.11,-53.2 -10,-79.9 12.19,-15.2 24.29,-30.4 36.59,-45.6 7.2,22.4 14.3,44.7 21.6,67 -14.5,20.7 -29.8,41.1 -48.19,58.5 z m 8012.9,197.6 c 54.89,-63.1 109.4,-127 169.89,-185 -79.2,26.6 -160.2,47 -240.49,69.6 -14.31,-22.5 -30.31,-44.3 -39.91,-69.4 107.1,-25 213.7,-51.8 320.4,-78.2 15.2,24.1 30.11,48.4 44.71,72.9 -72.01,84.9 -142.41,171.2 -214.31,256.1 -13.59,-21.9 -26.99,-43.9 -40.29,-66 z m -8444.906,-3.3 c -39,-24.5 -74.5,-65.5 -70.101,-114.5 7.8,-70 70.5,-144.2 147.203,-127.3 67.996,15.3 122.199,63.6 183.199,95 13.301,-12.9 25.801,-30.8 46.5,-31 27,0.6 47.101,21.2 63.297,40.5 -11.399,13.4 -22.598,26.8 -33.797,40.2 -11.699,-10.3 -20.301,-31.6 -39.199,-26.3 -15.7,18.5 -26.5,40.5 -39.102,61 -53.199,-31.7 -106.301,-63.7 -159.898,-94.8 -20.602,-12.3 -44.801,-20.9 -69,-14.9 -16.102,10.4 -33,26.5 -33.203,47 -3,27 20.203,46.3 39.601,60.6 54.699,33.6 110.602,65.3 165.399,98.7 -12.598,21 -24.899,42.1 -37.297,63.1 -54.301,-32.8 -109.403,-64.3 -163.602,-97.3 z m 8516.196,138.8 c 83,-73 165.9,-146.1 248.2,-219.9 10.8,23.3 21.4,46.8 31.4,70.6 -21.8,17.2 -42.9,34.9 -63.3,53.5 12.1,26.8 24.51,53.4 36.81,80.1 27.99,-4.5 56.09,-8.8 84.49,-10.9 9.61,24.4 20.71,48.1 32.81,71.3 -110.21,12.7 -220,27.6 -330,41.9 -13.6,-28.8 -26.81,-57.8 -40.41,-86.6 z m -19.19,138.2 c -6.9,-16.7 -17.5,-34.5 -6.9,-52.3 8.1,-22 -15.11,-35.6 -33.1,-39.3 -6.3,-10.5 -11.81,-21.5 -16.41,-32.9 18.1,-4 38.51,-9.2 55.7,1.1 43.21,26.5 52,100.1 0.71,123.4 z M 387.613,2683 c 7.5,-23.4 17.301,-46.1 27.5,-68.5 38.102,15.9 75.703,32.9 114.102,47.8 6.5,-18.8 20,-41.7 6,-60.5 -24.902,-27.6 -58.801,-45.3 -84.602,-72.2 9.7,-23.1 19.602,-46.2 29.5,-69.3 36.602,39.5 99.801,59.2 111.899,117.1 45.101,-44.8 133.804,-22.1 144.101,42.6 7.301,66.6 -31.699,127.5 -62.699,183.4 -95,-40.9 -190.098,-81.5 -285.801,-120.4 z m 8897.597,314.2 c 71.1,-19.2 141.1,-44.4 214.51,-53.8 -82.9,-10.9 -163.61,-32.8 -244.71,-52.1 -7.99,-27.2 -15.69,-54.5 -22.7,-82 101.3,-29 202.7,-57.7 303.91,-86.9 5.89,21.9 11.99,43.8 17.5,65.8 -72.41,20.5 -144.6,41.4 -217.61,59.5 84.3,13.7 167.1,35.1 250.4,53.5 7.61,24.7 14.6,49.6 21.4,74.6 -101.6,27.4 -202.5,57.3 -303.7,86.2 -6.7,-21.5 -12.99,-43.1 -19,-64.8 z m -8740.897,54.6 c 7.5,-26.9 15,-53.9 22.699,-80.8 -81.797,-22.7 -163.696,-45.3 -245.598,-67.8 6.301,-23.1 12.602,-46.4 18.5,-69.7 82.5,20.2 163.801,45.2 246.102,66.5 8,-27.4 15.699,-54.9 23,-82.5 20.097,5.5 40,11.2 59.699,17.9 -21.703,77.6 -43.699,155.2 -64.102,233.2 -20.3,-4.6 -40.5,-10.1 -60.3,-16.8 z m 8867.997,599.5 c -34.6,-15.2 -62.1,-46.4 -70.09,-83.7 -20.51,-71.8 39.89,-153.7 115.6,-151.9 75.49,-6.4 140.59,70.2 125.39,143.7 -10.3,76.7 -101.19,124.5 -170.9,91.9 z m -8970.794,2.3 c -47.004,-16.7 -81.602,-65 -78.403,-115.4 -4.898,-70.9 65.602,-131.9 134.903,-122.1 79.199,4.7 134.597,98.4 100.3,170.1 -22.8,60.8 -97.203,90.2 -156.8,67.4 z m 171.597,749.6 c -50.8,-47.1 -72.097,-116.3 -93.097,-180.3 37.097,-16.8 74.398,-33.4 111.898,-49.3 -3,-7.9 -9,-23.5 -12,-31.4 17.098,-7.6 34.199,-15.3 51.301,-23.3 3.297,7.4 10,22.3 13.398,29.7 41.203,-16.6 81.301,-35.9 122,-53.9 35.903,64.9 73.7,137 61.403,213.6 -24.301,103.4 -169.602,166.4 -254.903,94.9 z m 8434.707,-81.5 c 9.6,-22.4 19.4,-44.9 29.4,-67.2 40.4,17 80,35.6 120.49,52.5 15.6,-34.8 30.7,-69.9 46.01,-104.9 -40.11,-17.7 -80.41,-35 -120.41,-52.8 9.8,-22.4 19.6,-44.8 29.7,-67.1 96.6,43.1 194.1,84.1 290.1,128.5 -10.29,21.8 -20.1,43.7 -29.7,65.7 -37.1,-15.6 -73.6,-32.5 -110.59,-47.9 -15.71,34.8 -30.91,69.7 -46,104.7 36.9,15.8 73.39,32.5 110.4,48.3 -9.71,22.5 -19.51,44.8 -29.31,67.2 -96.8,-42 -193.19,-85.1 -290.09,-127 z m -7995.31,162.1 c -45.4,-15.1 -8.69,-88.7 31,-60.7 35.9,20.2 5.31,75 -31,60.7 z m -337.897,135.1 c 72.7,-83.1 143.903,-167.4 216.403,-250.7 13.199,21.2 26.597,42.3 40.199,63.2 -18.102,21.6 -37,42.6 -55.801,63.6 15.801,24.5 31.598,49.1 46.801,74 27.297,-7.4 54.495,-15 81.705,-22.8 13.79,22.5 27.79,44.9 42.19,67.1 -105.797,28.4 -211.497,57.4 -317.395,85 -23.199,-21.2 -35.301,-53.7 -54.102,-79.4 z m 8163.007,-16 c 11.5,-19.4 23.29,-38.7 35.2,-57.9 64.89,39.5 128.8,80.6 191.79,123.2 -47.79,-70.9 -84.4,-148.3 -127.79,-221.8 12.99,-22.4 26.7,-44.3 40.8,-66 89.8,55.1 177.79,113 267.5,168.2 -11.2,19.8 -23.1,39 -35.8,57.8 -61.11,-37.7 -122.01,-76 -180.2,-118.1 47.7,66 81.9,140.2 121.79,210.9 -15.3,24.1 -30.59,48.2 -45.79,72.3 -89.41,-55.9 -177.7,-113.4 -267.5,-168.6 z M 870.113,4846.1 c 83.203,-65 167.097,-129.1 250.297,-194.1 15.4,19.1 30.3,38.5 45.2,58 -83.2,64.9 -166.895,129.2 -250.297,193.9 -15.098,-19.2 -30.2,-38.5 -45.2,-57.8 z M 8796.51,4720.2 c 14.91,-19.4 30.31,-38.6 46,-57.5 82.5,65.7 166.3,129.5 249.2,194.6 -15,19.5 -30.09,38.8 -45.09,58.1 -83.41,-65 -167.1,-129.6 -250.11,-195.2 z m -7145.4,424.2 c -31.8,-12.5 -18.6,-69.4 16.7,-62.4 25.3,-0.9 32.6,25.4 31.7,45.8 -12.5,12.4 -30,28.8 -48.4,16.6 z m 6858.5,-123.7 c 15.8,-16.1 31.9,-32.1 48.1,-48.1 61.21,51.4 121.01,104.5 181.3,157 -46.39,-66.9 -87.79,-137.1 -128.5,-207.6 13.01,-13 26.2,-26.2 39.21,-39.4 74,34.4 146.7,71.3 219.4,108.4 -56.11,-56 -111.41,-112.7 -166.21,-169.9 15.2,-18.6 31.7,-36.2 49.11,-53 71.79,77.6 144.8,154 217.19,231 -22.19,23 -43.7,46.5 -65.8,69.5 -66.79,-32.6 -133.4,-65.3 -197.9,-102.2 41.6,61.2 78.7,125.3 114.9,189.8 -23.19,22.4 -44.8,46.3 -66.8,69.8 -81.1,-68.8 -163,-136.5 -244,-205.3 z m -7267.99,236.4 c -17.41,-17 -34.71,-34.3 -51.81,-51.6 28.2,-28.3 56.51,-56.6 84.8,-84.9 -26.8,-27.1 -53.6,-54.2 -81.1,-80.7 -27.9,28.6 -56,56.8 -84.59,84.6 -17.4,-17.1 -34.61,-34.3 -51.81,-51.6 75,-74.6 149.7,-149.5 224.51,-224.4 17.3,17.2 34.59,34.5 51.79,51.8 -30.6,30.9 -61.4,61.7 -92.3,92.2 26.3,27.5 53.5,54.1 80.21,81.1 31.29,-30.4 61.59,-61.9 93.09,-92.1 17.01,16.9 34.1,33.8 51.5,50.5 -73.6,76.2 -149.29,150.3 -224.29,225.1 z m 7078.1,-80.4 c 18.49,-15.7 37.3,-31.2 56.3,-46.5 66.99,81.7 134.39,163.2 200.89,245.4 -18.8,15.6 -37.79,30.9 -56.99,45.8 -66.71,-81.7 -134.11,-162.7 -200.2,-244.7 z m 209.89,256.5 c 15.11,-13 30.51,-25.7 46.1,-38.2 27.5,2.9 55,6.1 82.5,9.4 -19.49,16.4 -39.2,32.5 -59,48.6 -23.3,-6.4 -46.5,-13 -69.6,-19.8 z m -7067.5,10.7 c -49.8,-21.8 -93.4,-69.2 -96.2,-125.5 -8.5,-80.8 49.7,-160.9 125.71,-185.3 93.49,-29.9 201.29,57.6 190.89,155.2 -7,101.6 -118.1,199.3 -220.4,155.6 z m 6590.31,-67 c 19.8,-14 39.49,-28.1 59.09,-42.5 26.2,35.2 51.31,71.1 76.8,106.8 31.3,-21.6 62.2,-43.6 92.8,-66.3 -24.6,-36.2 -50.6,-71.4 -75.79,-107.1 19.89,-14.1 39.6,-28.4 59.4,-42.8 62.19,85.8 122.9,172.6 184.69,258.8 -20.4,13.8 -40.4,27.9 -60.4,42 -23.2,-32.9 -46.79,-65.5 -70.09,-98.3 -30.91,21.9 -61.41,44.3 -92.5,65.9 22.1,33.9 46.49,66.2 69.8,99.3 -20.2,14.1 -40.31,28.2 -60.51,42.2 -60.2,-86.6 -122.6,-171.7 -183.29,-258 z M 1676.01,5579 c -51.1,-97.8 29,-237.8 141.2,-236.8 65.6,-0.3 120.9,42.3 161.81,89.8 -13.91,14.4 -27.91,28.6 -41.91,42.7 -27.5,-32.3 -64.7,-63.5 -109.5,-62.4 -54.6,7.2 -95.99,62.2 -96.19,115.6 2.89,53.7 54.9,85.5 101.39,99.3 -6,18.6 -12,37.3 -17.7,56.1 -57.4,-14.1 -112.6,-50.1 -139.1,-104.3 z m 6176.41,-45.2 c 23.89,-65.5 90.49,-103.5 155.09,-119.6 6.81,18.5 13.8,36.9 21.1,55.1 -45.79,12.3 -97.39,38.7 -107.19,89.8 -6.41,50.3 27.7,101.7 73.39,121.3 49.31,17.5 97.01,-17.9 128.2,-53.1 14.21,14.3 28.5,28.7 42.8,43.1 -41.69,47.9 -102.7,83.3 -167.8,79.7 -101.39,-4.9 -177.2,-121.1 -145.59,-216.3 z m -3113.1,342.8 c -510.61,-20.2 -1020,-99.8 -1509,-250 -402.21,-124 -791.61,-295.7 -1142.71,-529.2 -276.9,-185.5 -530.99,-411 -723.49,-684.7 -177.5,-251 -297.41,-546.9 -318.31,-855.2 -4.6,-53.4 0,-107 -4.19,-160.4 10.69,-249.1 81.59,-494.7 200.99,-713.5 191.8,-353.4 489.9,-638.4 819.5,-863.4 338.7,-229.9 715,-400.8 1104,-526.4 453.61,-145.6 926.11,-229.9 1401.2,-261.1 100.8,-5.7 200.31,-24.6 301.3,-29 206.2,-14.598 413.9,-1.9 617.9,31.4 97.01,13 194.8,19.7 291.9,32.7 471.11,59.4 936.8,172.4 1377.3,350.9 349.41,142.4 684.3,325.8 978.1,563.7 247.3,200.5 465.8,442.1 614.01,725.5 162.5,306.3 226.59,666.1 164.29,1008.4 -63.9,365.1 -262.1,694.9 -516,960.2 -284.89,298.2 -636.1,526.6 -1007.3,702.8 -360.4,170 -742.59,291.9 -1132.3,373.5 -497.99,104.7 -1009,141.8 -1517.19,123.8 z M 2016.81,5748.3 c -7.79,-88.4 56.4,-191.1 151.3,-194.9 37.8,-4.2 71.2,17.8 107.9,21.4 38.6,4.2 77.1,9.1 114.8,18.4 -3.2,19.8 -6.4,39.5 -9.6,59.3 -24.1,-7.4 -48.5,-13.9 -72.9,-20.4 50.4,86 -1.6,206.1 -91.1,241.8 -86,32.2 -192.2,-33.6 -200.4,-125.6 z m 5525.5,223.2 c -76.5,-27.9 -122.99,-115.5 -112.1,-194.5 13.31,-101 146.9,-157.2 230.11,-100.9 62.39,44 97.1,127.9 76.5,202.6 -24.6,76.6 -119.6,120.9 -194.51,92.8 z m 170.2,77.7 c 15,-34.1 17.7,-83.5 63.51,-90 -2.61,21.6 -4.91,43.2 -7.3,64.8 -18.8,8.3 -37.61,16.8 -56.21,25.2 z m -111.29,-45.3 c 12.7,-7.6 25.6,-15.1 38.59,-22.6 11.41,5.8 23.1,11.6 34.71,17.6 -4.91,-33.3 22.9,-46.3 49.29,-55.4 -4.49,24.3 -9.2,48.5 -14.69,72.5 -15,7.1 -29.8,14.1 -44.71,21.2 -21.1,-11.1 -42.1,-22.4 -63.19,-33.3 z m -5127.4,33.1 c 26.79,-63.7 58.69,-125.4 82.39,-190.3 13.9,-31.3 -4.79,-70.2 -38.9,-76.4 -32.6,-7.3 -57.1,22.1 -69.2,48.5 -26.69,57.3 -50.8,115.9 -77.7,173.1 -21.59,-10 -43.3,-19.5 -65.3,-28.5 20.6,-53.9 45.6,-106 68.71,-158.8 17.19,-39.3 42.89,-79.9 85.3,-94.8 50.79,-13.8 105.89,8.3 142.5,43.9 35.09,34.9 34.9,90.8 17.69,134.3 -24.5,60.4 -52.89,119.2 -78.5,179.2 -22.5,-9.6 -44.9,-19.6 -66.99,-30.2 z m 4726.79,114.9 c -39.59,-97.8 -76.89,-196.5 -116.29,-294.3 22.59,-9.3 45.29,-18.3 68.19,-27.2 16.3,40.7 31.9,81.6 48.3,122.3 35.5,-14.3 71.5,-27.3 106.61,-42.6 -16.61,-40.3 -32.3,-81 -47.81,-121.7 22.3,-9.5 45,-18.1 68.1,-25.9 38.71,97.9 77.3,195.9 115.5,294.1 -22.7,8.6 -45.39,17.5 -67.89,26.5 -14.91,-37.4 -29.71,-74.8 -44.3,-112.3 -35.61,13.5 -70.7,28.1 -106.41,41.4 13.6,38 29.31,75.2 43.7,113 -22.7,8.7 -45.2,17.7 -67.7,26.7 z m -4428.9,10.5 c -56.1,-14.1 -103.2,-61.3 -111.5,-119.5 -14.1,-87.2 42,-192.8 135.9,-203.5 64.1,-5.4 134.4,29.1 160.4,90 24.91,61.3 6.4,133.3 -32.7,184.4 -34.09,45.9 -97.8,65.7 -152.1,48.6 z m -59.5,51.8 c -6.7,-23.1 -13.39,-46.3 -19.6,-69.5 14.7,4.9 29.4,10 44.1,15 3.1,11.6 6.3,23.2 9.61,34.8 9.89,-6.6 19.89,-13.3 29.89,-20 14.9,5.6 29.8,11.1 44.8,16.6 -20.3,13.6 -40.5,27.1 -60.8,40.7 -16,-5.8 -32,-11.7 -48,-17.6 z m 4059.81,47 c -83.71,-33.9 -122.61,-142.1 -93.01,-224.7 32.21,-86.3 153.21,-118.4 227.1,-66.6 60.51,45.8 86,131.6 65,203.8 -24.8,79.6 -124.29,117 -199.09,87.5 z m -3732.21,-35.3 c -75.2,-77.4 -41.8,-227.2 58.8,-265.8 64.1,-21.1 134.4,0.2 188.3,37.2 -9.29,17.2 -18.6,34.4 -28.3,51.3 -28.29,-15.1 -57.9,-32.7 -91.3,-30.9 -85.49,-0.6 -128.1,131.1 -59.69,181.8 26.99,22.4 63.39,26.6 97.3,27.1 0,19.7 0,39.3 0,58.9 -59.8,2.6 -122.7,-15.7 -165.11,-59.6 z m -243.8,60.3 c -5.3,-21.5 -10.4,-43.1 -15.3,-64.7 8.41,3 25.2,8.9 33.61,11.9 14.39,25 28.59,50.1 42.7,75.3 -20.4,-7.5 -40.6,-15.1 -61.01,-22.5 z m 4133,14 c 39.91,-19.5 75.71,12.5 111.7,25.9 -20.3,6.3 -40.59,12.5 -60.79,18.6 -18.01,-13.6 -35.2,-28.3 -50.91,-44.5 z m -58.89,36.9 c -19.71,-14.6 -39.41,-29.3 -59.01,-44.1 15.11,-4.6 30.51,-9.2 45.71,-13.9 9.4,7.2 18.89,14.3 28.39,21.4 3.8,-11.1 7.7,-22.1 11.61,-33.2 15.4,-4.7 30.8,-9.4 46.29,-14.1 -7.99,24 -16.6,47.7 -26.6,70.8 -15.6,4.3 -31,8.7 -46.39,13.1 z m -474.31,45.8 c -24.9,-102.6 -48.99,-205.5 -72.99,-308.3 23.8,-5.7 47.69,-11.2 71.7,-16.5 8.89,43 19.8,85.4 29,128.3 37.19,-9.4 74.69,-17.9 112.19,-26.3 -9.8,-43 -19.6,-86 -30.5,-128.8 24,-5.1 47.8,-10.8 71.7,-16.4 23.21,103.1 50,205.3 71.4,308.8 -23.5,5.1 -46.8,10.3 -70,16.2 -9.19,-39.3 -18.5,-78.6 -27.99,-117.8 -37.21,9.2 -74.71,17.1 -111.6,26.9 9.49,38.8 18.19,77.8 27.79,116.6 -23.6,6 -47.19,11.7 -70.7,17.3 z m -2951,-52 c -75.49,-72.3 -51.3,-218.5 44.31,-261.2 72.9,-28.7 152.19,-0.4 217.9,33.8 -10.11,55.2 -24.51,109.4 -35.11,164.4 -37.99,-6.9 -75.9,-15 -113.3,-24.5 -5.2,-18 6.6,-38.4 8.81,-57.1 15.4,3.8 30.69,7.6 46.09,11.4 5.9,-21.6 10.9,-43.5 15,-65.5 -25.69,-6.9 -52.8,-17.5 -79.59,-9.7 -73.11,18 -101.01,129.4 -40.91,177 34.81,26.5 81.31,31 123.61,26.6 1,20.3 2.39,40.6 3.89,60.9 -67.2,6.3 -140.39,-8.8 -190.7,-56.1 z m 277.01,81.3 c 18.1,-104.1 37.7,-207.8 56.29,-311.8 23.8,4.5 47.7,8.8 71.61,13.1 -18.41,103.8 -37.9,207.4 -56.21,311.2 -23.99,-4.2 -47.8,-8.4 -71.69,-12.5 z M 6040.91,6125 c 23.61,-4.5 47.3,-8.6 71.11,-12.5 6.9,36.5 13.19,73.1 20.49,109.5 36.5,-8.3 76.01,-14 111.9,0.5 69.2,24.1 84.6,135 20.4,173.6 -50.49,29.6 -111.2,31 -167.9,36.6 -19,-102.5 -37.59,-205.1 -56,-307.7 z m -2089.09,326.7 c -16.41,-109.1 -34.31,-217.9 -50,-327.1 25,3.5 50.09,7.4 75.09,11.9 2.61,27.2 6,54.3 9.4,81.4 29.3,5 58.7,8.9 88.1,12.9 11.6,-26.1 22.9,-52.6 38.1,-77 24.8,4.6 49.8,8.6 74.8,12.1 -45.8,100.4 -94.49,199.5 -141.6,299.3 -31.19,-4.9 -62.6,-9.2 -93.89,-13.5 z m 1681.59,43.4 c -12.8,-103.6 -23.8,-207.4 -35.4,-311.2 23.81,-2.7 47.6,-5.6 71.6,-8.5 6.2,43.8 9,88 16.41,131.6 36.8,-4.9 73.79,-9.7 110.89,-12.5 0.11,-44.3 -9.2,-87.7 -11.79,-131.8 23.89,-3.2 47.89,-5.7 72.1,-7.6 11.3,104.7 23.39,209.4 35.4,314 -24.61,2.3 -49.21,5 -73.7,7.4 -2.61,-39.9 -7.81,-79.5 -12.81,-119.1 -38.2,3.3 -76.1,8.4 -114,12.9 4.91,39.7 8.91,79.5 13.4,119.3 -23.89,1.5 -48.69,10.5 -72.1,5.5 z m -1348,-0.9 c 1.3,-20.1 2.6,-40.2 3.8,-60.3 28.7,1.1 57.3,3 86,4.6 6.7,-84.3 12.9,-168.7 21.21,-253 23.99,2 47.99,4.1 72.09,6.2 -7.4,84.5 -14.39,169.1 -20.8,253.7 28.2,2.3 56.5,4.8 84.8,6.6 -1.5,20.3 -2.99,40.6 -4.4,60.9 -81,-4.3 -161.69,-13.1 -242.7,-18.7 z m 996.41,28.8 c -7.3,-105.4 -13.71,-210.9 -19.71,-316.3 22.41,-0.8 44.8,-2.1 67.3,-3.4 2.9,75.8 9.8,151.3 11.61,227 30,-80.2 69.39,-156.4 105.8,-233.9 25.29,-1.7 50.49,-5.2 76,-3.9 8.09,104.9 13.4,210 19.89,315 -22.2,0.9 -44.19,2 -66.29,2.9 -5.4,-72.4 -10.11,-144.9 -10.4,-217.5 -23.4,79 -66.01,150 -99.4,224.8 -28.31,1.6 -56.61,3.1 -84.8,5.3 z m -263.91,5 c -33.7,-104.6 -66.6,-209.5 -100.2,-314.1 25.11,-1.4 50.2,-2.8 75.3,-3.2 7.4,26.8 15.2,53.5 23,80.2 29.5,0.1 59.11,0.1 88.71,0.1 7.39,-26.7 15.2,-53.2 22.79,-79.8 26.61,-2.9 53.4,-3.7 80.31,-3.4 -31.71,105.4 -63.9,210.7 -93.7,316.6 -31.9,4.8 -64.11,3.9 -96.21,3.6 z m -237.9,-3.9 c 4.51,-39.4 3.8,-79.2 5.7,-118.7 -38.6,-1.9 -77.3,-3.2 -115.79,-4.6 -0.51,40.2 -2.41,80.2 -2.7,120.4 -24.71,-1 -49.4,-1.3 -74.01,-1.4 3.7,-105.5 8.1,-211 11.4,-316.6 24.6,0.7 49.1,2.1 73.8,3.2 -3.6,43.8 -3.49,87.7 -6.5,131.4 38.5,-0.7 76.9,2.6 115.4,3.7 2.3,-43.6 3.2,-87.2 6.1,-130.8 23.9,0.1 47.8,0.6 71.8,2.4 -3.9,104.9 -7.9,209.9 -10.4,314.9 -25,0.6 -50.2,0.5 -74.8,-3.9 z m 204.4,77.9 c 18.5,-20.1 37.9,-39.5 57.7,-58.5 19.6,0.1 39.2,0.2 58.9,0.2 -13,19.6 -26,39.1 -38.9,58.7 -26,0 -51.9,0 -77.7,-0.4 z m -112.79,290.2 c 917.3,17.6 1842.9,-131.5 2695.2,-476.5 373.89,-151.9 732.9,-342.4 1062.19,-576.3 300.71,-214.3 577.1,-465.1 806.31,-755.3 196.39,-248.8 357.79,-526.9 463.2,-826.4 98.7,-278.2 147.38,-574.4 139.38,-869.6 -7.2,-345.5 -93.78,-687.7 -241.48,-999.7 C 9598.11,1968.2 9295.32,1603.3 8944.41,1301.5 8511.02,929.199 8005.12,647.5 7473.52,441.699 6692.71,140.199 5853.61,1.80078 5018.11,0 c -896.9,2.39844 -1798.7,162.102 -2626.69,512.301 -345.91,146.398 -678.01,327 -984.31,544.899 -302.5,215.5 -579.395,468.8 -809.395,760.9 -171.602,219.1 -316.5,460.3 -419.602,719.2 C 37.3125,2888.1 -24.5859,3271.7 8.91406,3648.7 37.8125,3999.7 147.813,4341.8 316.316,4650.3 c 164.098,301.6 382.098,572 630.297,808.3 375.497,356.9 818.397,637.8 1287.897,854.1 824.81,378.1 1732.11,560.4 2637.11,579.5"
         style="fill:#27296e;fill-opacity:1;fill-rule:nonzero;stroke:none"
         id="path184" />
      <path
         d="m 5028.11,6348.4 c 12.6,39.7 22.7,80.2 34.8,120.1 7.8,-41.9 20.6,-82.6 31.9,-123.7 -22.3,0.8 -44.49,2.5 -66.7,3.6"
         style="fill:#27296e;fill-opacity:1;fill-rule:nonzero;stroke:none"
         id="path186" />
      <path
         d="m 4003.31,6401.8 c 16.7,-39.5 34.31,-78.7 52.2,-117.7 -22.3,-3.1 -44.5,-6 -66.7,-9.1 7.3,42 12.1,84.3 14.5,126.8"
         style="fill:#27296e;fill-opacity:1;fill-rule:nonzero;stroke:none"
         id="path188" />
      <path
         d="m 6158.92,6369.3 c 23.19,-3.7 50.89,-4.4 66.89,-24.7 19,-24.9 1.81,-66 -28.59,-71.5 -18.3,-6.1 -37.1,2.1 -55.11,4.4 5.6,30.6 11,61.2 16.81,91.8"
         style="fill:#27296e;fill-opacity:1;fill-rule:nonzero;stroke:none"
         id="path190" />
      <path
         d="m 6802.02,6202.6 c 37.19,24.4 91.19,-2.6 97.99,-45.5 10.8,-52.4 -10.69,-113.9 -55.89,-144.2 -41.3,-25.4 -96.21,10.1 -98.51,56.3 -3.7,49 14.31,104.8 56.41,133.4"
         style="fill:#27296e;fill-opacity:1;fill-rule:nonzero;stroke:none"
         id="path192" />
      <path
         d="m 2772.21,6100.8 c 60.1,24.6 107.51,-41.4 117.2,-93.5 16.8,-45.8 -10.7,-106.6 -63.7,-107.5 -54.39,5.3 -83.5,61.9 -92.4,110 -6.79,34.2 4.4,76.3 38.9,91"
         style="fill:#27296e;fill-opacity:1;fill-rule:nonzero;stroke:none"
         id="path194" />
      <path
         d="m 7572.51,5911.1 c 42.7,25 100.5,-13.8 95.7,-62.3 -0.5,-57.6 -36.9,-126.5 -99.2,-134.1 -41.59,1.7 -73.69,43.1 -66.5,83.9 7.41,44.1 29.6,89.9 70,112.5"
         style="fill:#27296e;fill-opacity:1;fill-rule:nonzero;stroke:none"
         id="path196" />
      <path
         d="m 2131.42,5814.3 c 63.69,18.5 111.19,-50.6 123.49,-104.8 16.41,-47 -25.3,-102.9 -76.3,-91 -51.6,14.2 -82.9,68.7 -89.9,119 -5.3,31.7 13.1,64.5 42.71,76.8"
         style="fill:#27296e;fill-opacity:1;fill-rule:nonzero;stroke:none"
         id="path198" />
      <path
         d="m 1472.01,5382 c 62.7,21.5 118.1,-40.1 137.5,-94 20.7,-45.7 -22.7,-102.4 -72.2,-92.5 -49.6,10.8 -86.5,56.1 -101.2,102.9 -12.6,32.3 6.1,68.7 35.9,83.6"
         style="fill:#27296e;fill-opacity:1;fill-rule:nonzero;stroke:none"
         id="path200" />
      <path
         d="m 788.715,4626.1 c 39.699,-13.9 80.398,-24.3 120.5,-36.9 -11.402,-18.3 -22.899,-36.6 -34.602,-54.7 -29.3,29.9 -56.398,61.9 -85.898,91.6"
         style="fill:#27296e;fill-opacity:1;fill-rule:nonzero;stroke:none"
         id="path202" />
      <path
         d="m 596.914,4269.5 c 13.699,41 40.699,90.5 90.602,88.8 58,-0.7 129,-45.6 120.8,-110.9 -0.503,-22.7 -12.101,-42.8 -21.101,-63 -24.301,9.9 -48.102,20.8 -71.699,32.3 8.398,18.5 16.797,37.1 25.3,55.5 -17.3,8.6 -34.902,16.6 -52.5,24.4 -8.601,-19.1 -17.3,-38.1 -26.101,-57.2 -21.902,9.8 -43.801,19.6 -65.301,30.1"
         style="fill:#27296e;fill-opacity:1;fill-rule:nonzero;stroke:none"
         id="path204" />
      <path
         d="m 578.016,2683 c 26.097,11.9 52.699,23 79.5,33.3 9,-22.7 26.898,-48.6 14.398,-73.5 -11.199,-14 -31,-27.7 -49.398,-19.9 -25.801,9.1 -34.5,37.4 -44.5,60.1"
         style="fill:#27296e;fill-opacity:1;fill-rule:nonzero;stroke:none"
         id="path206" />
      <path
         d="m 9211.71,2618.2 c 41.2,-6.7 82.61,-13 124,-18.9 -9.29,-19.9 -18.49,-40 -27.89,-59.9 -31.8,26.7 -63.3,53.6 -96.11,78.8"
         style="fill:#27296e;fill-opacity:1;fill-rule:nonzero;stroke:none"
         id="path208" />
      <path
         d="m 922.113,2152.1 c 47.2,21.3 106.597,-23.5 92.997,-75 -15.196,-50.9 -64.094,-91.6 -116.294,-99.3 -40.5,-7.8 -80.203,30.1 -75.101,70.5 8.699,50.4 52.601,86.7 98.398,103.8"
         style="fill:#27296e;fill-opacity:1;fill-rule:nonzero;stroke:none"
         id="path210" />
      <path
         d="m 8627.22,1821.3 c 35.99,-22.3 72.79,-43.2 109.49,-64.3 -15.8,-15.5 -31.9,-30.5 -48.4,-45.1 -18.9,37.2 -39.1,73.8 -61.09,109.4"
         style="fill:#27296e;fill-opacity:1;fill-rule:nonzero;stroke:none"
         id="path212" />
      <path
         d="m 1759.41,1439.8 c 37.9,-20 82.01,-53.5 75.2,-102 -9.5,-43.9 -38.8,-86.2 -81.5,-103.2 -38.9,-14.7 -77,10.1 -107.9,31.3 14.4,21.7 28.71,43.5 42.9,65.4 17.6,-11.3 35.1,-22.9 52.5,-34.6 10.4,16.4 21.01,32.6 31.6,48.8 -17.2,11.5 -34.4,23 -51.6,34.3 13,20 25.91,40 38.8,60"
         style="fill:#27296e;fill-opacity:1;fill-rule:nonzero;stroke:none"
         id="path214" />
      <path
         d="m 1980.81,1155.1 c 29.5,29.8 60.1,58.6 86.9,90.9 -9,-40.7 -19.1,-81.2 -28.3,-122 -19.9,9.7 -39.4,20.2 -58.6,31.1"
         style="fill:#27296e;fill-opacity:1;fill-rule:nonzero;stroke:none"
         id="path216" />
      <path
         d="m 7761.51,1201.9 c 29,-30.4 57.1,-61.6 87.61,-90.5 -19.2,-10.8 -38.61,-21.1 -57.9,-31.5 -8.8,41 -18.21,81.8 -29.71,122"
         style="fill:#27296e;fill-opacity:1;fill-rule:nonzero;stroke:none"
         id="path218" />
      <path
         d="m 2843.11,881.199 c 36.21,20.403 87.01,-3.801 93.71,-45 10.4,-51.801 -11.21,-110.898 -53.51,-142.898 -35.6,-26.102 -90.49,-3.5 -100.3,38.597 -12.1,55 12.11,118.704 60.1,149.301"
         style="fill:#27296e;fill-opacity:1;fill-rule:nonzero;stroke:none"
         id="path220" />
      <path
         d="m 6991.91,874.898 c 38.7,24.801 85.2,-3.5 103.5,-40.199 26.81,-44.398 38.71,-119.699 -14.7,-149.398 -41.79,-23.102 -88.09,11 -104.6,49.597 -21.9,43.403 -31.7,109.801 15.8,140"
         style="fill:#27296e;fill-opacity:1;fill-rule:nonzero;stroke:none"
         id="path222" />
      <path
         d="m 6265.21,678.102 c 20,-38.204 39.2,-76.801 59.31,-115 -21.81,-4.102 -43.41,-8.5 -65,-13.102 3.3,42.699 6.39,85.402 5.69,128.102"
         style="fill:#27296e;fill-opacity:1;fill-rule:nonzero;stroke:none"
         id="path224" />
      <path
         d="m 4171.42,585.699 c 37.39,22.602 86.59,-6.597 95.09,-46.898 12.7,-52.903 2.7,-122.801 -49.6,-151 -42.99,-19.699 -89.2,18.199 -94.29,61.301 -7.81,48.097 3.29,110.097 48.8,136.597"
         style="fill:#27296e;fill-opacity:1;fill-rule:nonzero;stroke:none"
         id="path226" />
      <path
         d="m 5261.42,553.801 c 39.19,16.601 80.89,-14.199 91.59,-51.903 13.21,-44.597 15.3,-103.097 -21.5,-137.398 -31,-31 -87.79,-16.398 -104.2,23 -25.89,52.398 -25.09,137.102 34.11,166.301"
         style="fill:#27296e;fill-opacity:1;fill-rule:nonzero;stroke:none"
         id="path228" />
      <path
         d="m 4482.82,440.199 c 14,39.602 27.3,79.5 40.19,119.403 6.71,-41.903 16.91,-83.102 26.2,-124.602 -22.19,2.199 -44.29,3.699 -66.39,5.199"
         style="fill:#27296e;fill-opacity:1;fill-rule:nonzero;stroke:none"
         id="path230" />
      <path
         d="m 5047.91,3906.5 c -0.09,-15.3 0,-30.8 0.1,-46.2 68.81,0.2 137.5,-0.3 206.31,0.3 -32.21,29.1 -62.41,60.4 -95,89 -33.71,-22.2 -71.7,-36.5 -111.41,-43.1 z m -261.2,-46.2 c 67.9,0.2 135.8,-0.2 203.7,0.3 0.2,15 0.4,30.1 0.8,45.1 -39.9,8.1 -78.59,21.5 -112.2,44.7 -30.09,-30.7 -62.9,-58.6 -92.3,-90.1 z m -41.39,240.6 c -0.2,-67.8 -0.11,-135.6 0,-203.4 31.1,30.3 64,58.8 93.8,90.3 -23.01,33.7 -39.91,71.5 -45.51,112.1 -16.1,0.4 -32.3,0.7 -48.29,1 z m 500.79,-0.6 c -6.3,-40.9 -22.3,-79.5 -46.99,-112.7 32.19,-30.1 63.3,-61.4 96.49,-90.5 -0.2,67.9 0.2,135.9 -0.29,203.8 -16.51,-0.2 -32.9,-0.4 -49.21,-0.6 z m -285.2,173.6 c -65.1,-22 -114.9,-86.8 -113.09,-156.4 0.89,-84.4 76.39,-155.2 159.09,-159.3 97.9,-10.6 197.21,78.8 183.3,179.5 -9.8,105.7 -132.3,174 -229.3,136.2 z m 238.41,-20.4 c 20.89,-30.6 36.99,-64.3 45.2,-100.7 16.9,0 33.89,0 50.89,0 0.1,64.1 0.7,128.2 -0.4,192.3 -32,-30.4 -64.2,-60.7 -95.69,-91.6 z m -453.91,90 c -0.49,-63.3 0.2,-126.5 -0.49,-189.7 16.5,-0.5 32.99,-0.9 49.6,-1.3 8.3,36.8 24.89,70.7 45.99,101.8 -32.3,29.1 -63.09,59.8 -95.1,89.2 z m 604.8,47 c 0,-180.8 0.11,-361.5 -0.09,-542.3 139.2,-0.3 278.4,-0.5 417.59,0.1 -0.8,180.4 2.8,360.9 -2,541.3 -138.49,2.4 -276.99,0.6 -415.5,0.9 z m -301.9,-6.9 c 0,-16.6 0.1,-33.2 0.3,-49.9 40.2,-4.2 77.41,-20.9 111.51,-42 32.5,30.3 64.09,61.5 97.1,91.3 -69.6,0.7 -139.31,-0.3 -208.91,0.6 z m -262.99,-0.6 c 29.09,-32.5 62.89,-60.2 93.09,-91.7 34.1,22.1 72.3,36.5 112.2,43.9 0.1,15.6 0.2,31.2 0.4,46.7 -68.5,2.8 -137.09,0.9 -205.69,1.1 z m -513.1,-534.1 c 139.4,-2.1 278.89,-0.4 418.29,-0.8 0.1,180.8 0.2,361.6 0,542.5 -139,0.4 -277.89,-0.4 -416.8,0.4 -2.7,-180.7 0.3,-361.4 -1.49,-542.1 z m 720.49,2021.6 c 18.6,0.1 37.3,0.2 56,0.2 -1.29,-10.7 -3.99,-32 -5.4,-42.7 6.5,-6.8 14.51,-10.1 24.11,-10.1 47.1,-3.7 94.4,-3.1 141.39,-8 l -5.9,0.3 c -53.5,5.4 -107,0.6 -160.4,-0.9 12.1,-94.7 2.1,-191 5.4,-286.4 15.7,0 31.5,-0.1 47.3,-0.2 -0.09,-19.6 -0.2,-39.3 -0.2,-59 162.61,-1 325.5,-2.5 488.1,0.6 95.7,30.4 178.2,97.2 234.6,179.8 0.81,-95.3 -0.49,-190.6 0.5,-285.9 4.1,-80.7 19.61,-165.5 71,-230.4 27.7,-35.3 72.5,-63.6 119,-53.9 38.1,6.6 64.3,37.1 90.4,62.8 10,-34.5 21.31,-75.5 -2.19,-107.2 -32.3,-44.2 -91.5,-52.8 -142.21,-57.6 -82.19,-3 -164.49,-0.2 -246.7,-1.3 1.81,-38.8 2.9,-77.7 3,-116.6 128.1,-2.9 256.31,-0.4 384.5,-1.2 4.91,-46.1 29.8,-86.2 53.3,-125 51.5,-80.8 127.2,-151.6 221.9,-176.1 24,-6.3 54.71,-10 73,10.9 12.9,18.4 7.2,42.2 9.01,63 23.69,-37.7 46.3,-80.9 38.8,-127.1 -4.91,-36.2 -34.6,-62.7 -66.3,-77.1 -52.21,-23.2 -110,-30.8 -166.71,-30.9 -110.9,0.2 -221.79,0.3 -332.69,0.1 -0.2,-185.1 -0.11,-370.1 0,-555.2 68.29,-0.2 136.5,0 204.69,-0.1 0.4,-104.8 0.31,-209.7 0.11,-314.6 -740.71,-0.1 -1481.31,0.1 -2222.01,-0.1 -0.29,104.9 -0.29,209.9 -0.1,314.8 69.21,0 138.41,-0.2 207.5,0.1 0.1,185 0.1,370 0,555 -109.2,0.3 -218.29,0.2 -327.5,0 -74.7,1.5 -159.4,7.4 -216.7,61.1 -46.19,50.2 -17.5,123.9 14.5,173.6 -0.1,-30.7 0.9,-77.3 42.3,-78.5 79.71,3.2 151.41,50.3 204.71,107 50.69,56.6 99.2,122.5 110.69,199.4 127.8,-0.8 255.7,0.1 383.51,-0.5 1.99,39.3 3.59,78.6 3.79,118 -82.5,1.2 -165.1,-1.9 -247.5,1.4 -48.59,5.3 -104.9,13 -137.8,53.4 -25.59,32.1 -17.2,75.3 -4,110.7 24.7,-25.5 50.6,-53.9 86.9,-61.6 44.1,-10.7 88.5,13.6 116.2,46.9 55.6,65.2 73.01,153.5 75.8,237 1.1,95 -1.2,190.1 1.1,285.2 39,-54.1 86,-103 143.9,-137 34.8,-19.7 70.5,-44.3 112.1,-44 155.2,0.3 310.31,0 465.5,0.3 0,19.9 0,39.8 0.2,59.6 16.6,0.2 33.1,0.4 49.8,0.5 -1.19,95.5 3.1,191.2 -2.3,286.6 -40,1.3 -79.9,2.7 -119.8,1.3 l -0.99,-0.1 c 41.09,2.1 82.19,5.2 123.29,8.1 -0.2,17.2 -0.39,34.4 -0.5,51.6"
         style="fill:#f8ea07;fill-opacity:1;fill-rule:nonzero;stroke:none"
         id="path232" />
      <path
         d="m 4347.91,4318 c 89.2,-0.1 178.3,0.3 267.5,-0.3 -0.29,-133.1 -0.29,-266.3 0,-399.5 -89.2,-0.5 -178.3,-0.1 -267.4,-0.2 -0.19,133.3 -0.1,266.7 -0.1,400"
         style="fill:#f8ea07;fill-opacity:1;fill-rule:nonzero;stroke:none"
         id="path234" />
      <path
         d="m 5425.61,4317.9 c 89,0.2 178,0.1 267.01,0.1 0.09,-133.3 0.09,-266.6 0,-400 -89.01,0 -178.01,-0.1 -267.01,0.1 -0.1,133.3 -0.1,266.5 0,399.8"
         style="fill:#f8ea07;fill-opacity:1;fill-rule:nonzero;stroke:none"
         id="path236" />
      <path
         d="m 4622.02,3314.7 c 93.49,73.2 228.89,77.4 335.49,31.4 -8.9,-58.3 -18.59,-116.6 -27.5,-175 -45.49,23.6 -99.1,38.6 -149.8,24.3 -29.6,-8.3 -57.79,-34 -55.4,-67.1 -1.9,-52.4 51.7,-78.8 89.11,-104 69.29,-38.2 135.69,-92.6 161.89,-170 24.51,-73.4 19.51,-157.4 -16.09,-226.5 -37.9,-72.5 -113.91,-119.3 -193.3,-132.9 -79.71,-13.9 -164.11,-5.8 -239.11,24.5 -1.5,58 15.6,119.3 21.1,178.8 58.1,-27.4 125.3,-43.2 189.01,-29.6 36.5,7 67.99,40.9 60.69,79.8 -2,50.2 -50.1,77.8 -87.6,101.9 -71.9,41.6 -141.5,99.4 -166.8,181.5 -28.59,98.2 -3.39,216.8 78.31,282.9"
         style="fill:#f8ea07;fill-opacity:1;fill-rule:nonzero;stroke:none"
         id="path238" />
      <path
         d="m 5131.51,3314.6 c 93.7,73.4 229.3,77.5 336.11,31.5 -9.31,-58.4 -18.61,-116.9 -28.01,-175.4 -50.49,27.4 -115.6,43.8 -169.29,16.1 -38.7,-18 -47.9,-73.8 -20.4,-105.3 33.69,-38.6 81.79,-59.7 123.49,-88.2 54.01,-36.4 98.21,-89.3 116.6,-152.6 28.91,-101.7 1.21,-224.1 -85.49,-289.9 -105.2,-80.1 -252.1,-75.4 -371.11,-31.2 7,59.4 17.2,118.4 25,177.8 55.4,-25.1 118.01,-40.3 178.9,-31 35.6,4.8 73.8,31.9 70.9,71.7 4.61,54.7 -47.4,86.8 -87.5,112.1 -74.69,42.9 -147,104.2 -169.9,190.7 -23.7,96.3 1.81,209.3 80.7,273.7"
         style="fill:#f8ea07;fill-opacity:1;fill-rule:nonzero;stroke:none"
         id="path240" />
      <path
         d="m 3915.61,3367.9 c 64.9,0.2 129.71,0.2 194.6,0 0,-173.2 0.11,-346.4 -0.09,-519.7 1.9,-56.2 -5.2,-120.4 29.6,-168.5 17.1,-24.6 58.19,-22.3 74.2,2.2 22.09,34 22.7,76.5 24.09,115.6 -0.1,190.2 -0.1,380.3 -0.1,570.5 64.91,0 129.8,0 194.71,0 0.2,-163.3 0,-326.6 0.09,-489.9 2.5,-95.9 -3.19,-197.2 -51.7,-282.5 -31.6,-56.3 -89.19,-96.5 -153.19,-105.6 -87.81,-14.6 -191.71,4.2 -246.61,80.6 -63.2,88.3 -66.4,202.8 -65.7,307.3 0.1,163.4 0,326.7 0.1,490"
         style="fill:#f8ea07;fill-opacity:1;fill-rule:nonzero;stroke:none"
         id="path242" />
      <path
         d="m 5587.91,3368 c 64.91,0 129.8,0 194.71,0 0.2,-112.5 0,-225 0.09,-337.5 46.81,-0.3 93.6,-0.3 140.4,0 0,112.5 -0.1,225 0.1,337.5 64.8,0 129.7,0 194.7,0 0,-290.8 0.1,-581.5 -0.09,-872.3 -64.91,-0.1 -129.71,0 -194.61,0 -0.3,115.8 0.1,231.6 -0.2,347.4 -46.79,0.2 -93.49,0.2 -140.19,0 -0.31,-115.8 0,-231.6 -0.2,-347.4 -64.91,0 -129.8,-0.1 -194.61,0 -0.19,290.8 -0.1,581.5 -0.1,872.3"
         style="fill:#f8ea07;fill-opacity:1;fill-rule:nonzero;stroke:none"
         id="path244" />
      <path
         d="m 3907.11,2405.3 c 39.91,0.1 79.8,-0.1 119.8,0.3 15.4,-120 34.51,-239.7 45.11,-360.3 15.29,119.9 28.69,240.2 45.09,360 39.8,0.1 79.51,0.2 119.2,-0.2 -33.69,-165.5 -70.7,-330.3 -103.69,-495.9 -41.2,-2.1 -82.41,-1 -123.61,-1.2 -33.5,165.9 -68.8,331.4 -101.9,497.3"
         style="fill:#f8ea07;fill-opacity:1;fill-rule:nonzero;stroke:none"
         id="path246" />
      <path
         d="m 4268.11,2405.4 c 32.8,-0.1 65.6,-0.1 98.4,0 36.8,-99.4 73.1,-199 108.21,-299 -7.7,99.4 -10.6,199.1 -9.21,298.8 31.6,0.2 63.1,0.2 94.7,0 0,-165.7 0.11,-331.4 0,-497.1 -33.1,-0.1 -66.09,-0.1 -99.2,0 -33.59,97.7 -76.49,192.4 -101.09,292.9 -1.91,-97.6 5.4,-195.2 2.7,-293 -31.61,0 -63.1,0 -94.71,0 0.1,165.8 -0.2,331.6 0.2,497.4"
         style="fill:#f8ea07;fill-opacity:1;fill-rule:nonzero;stroke:none"
         id="path248" />
      <path
         d="m 4632.62,2404.3 c 35.79,1.5 71.59,1.3 107.5,1 1.59,-116.1 -2.7,-232.4 2.1,-348.4 -0.8,-26.3 21.79,-69.9 51.99,-44.9 19.91,30.9 14.4,70.4 16.5,105.5 -0.3,95.9 -0.1,191.9 -0.1,287.8 35.7,0.1 71.3,0.1 107.1,0.1 0.5,-102.5 0,-205 0.3,-307.6 -1.19,-56.2 -10.1,-117.7 -49.6,-160.8 -58.4,-55.4 -173.8,-45.1 -210.4,30.8 -18.6,37.1 -24.09,79.2 -24.9,120.2 -0.29,105.5 0.7,210.9 -0.49,316.3"
         style="fill:#f8ea07;fill-opacity:1;fill-rule:nonzero;stroke:none"
         id="path250" />
      <path
         d="m 5100.61,2405.3 c 35.7,0.1 71.41,0.1 107.1,0.1 1.01,-64.4 -1.4,-128.9 1.5,-193.3 24.51,0.6 49.2,0.8 73.8,0.8 0,63.9 0.51,127.8 -0.3,191.6 36.81,1.3 73.71,1.5 110.6,-0.3 -1.4,-165.4 -0.2,-330.8 -0.69,-496.2 -36.51,0 -73.01,0 -109.41,0 -0.2,65.9 0,131.7 -0.1,197.5 -25.1,0.2 -50.1,0.3 -75,0.3 -0.4,-65.9 -0.1,-131.8 -0.2,-197.8 -35.89,0 -71.6,0 -107.4,0.2 0.2,165.7 0,331.4 0.1,497.1"
         style="fill:#f8ea07;fill-opacity:1;fill-rule:nonzero;stroke:none"
         id="path252" />
      <path
         d="m 5511.31,2355.4 c 48.61,53 130.11,69.7 196.51,43.2 -5.91,-32.6 -11.31,-65.3 -18.1,-97.8 -25.91,7.9 -57.21,14 -80.51,-3.9 -44.09,-30.7 -49.4,-90.1 -51.2,-139.3 1.11,-47.1 5.3,-102.7 44.21,-135.1 24.6,-21.4 59,-13.4 88.39,-11 3.31,-33 7.01,-66.1 7.1,-99.5 -57.39,-11 -123.7,-14.4 -172.2,23.8 -61.1,47.2 -79.09,129.1 -81.99,202.3 -1.01,76.5 13.1,159.9 67.79,217.3"
         style="fill:#f8ea07;fill-opacity:1;fill-rule:nonzero;stroke:none"
         id="path254" />
      <path
         d="m 5761.22,2405.5 c 37.7,-0.2 75.4,-0.2 113.19,-0.2 18.1,-107.4 41.61,-213.9 57.9,-321.7 18.4,107.5 36.81,214.9 57.7,321.9 37.41,-0.1 74.8,-0.1 112.3,-0.4 9.71,-165.7 20.11,-331.3 28.4,-497 -31.59,-0.1 -63.2,-0.1 -94.69,-0.1 -5.31,97.4 -12.71,194.9 -11.7,292.4 -19.31,-94.1 -38.21,-188.3 -58.71,-282.2 -26.29,-0.2 -52.5,-0.2 -78.7,-0.2 -19,94.8 -41.4,189 -54.29,285 -6.81,-98.2 -11.2,-196.6 -15.2,-295 -30.8,0 -61.61,0 -92.41,0.1 12.21,165.8 22.9,331.7 36.21,497.4"
         style="fill:#f8ea07;fill-opacity:1;fill-rule:nonzero;stroke:none"
         id="path256" />
      <path
         d="m 3780.61,1820.2 c 825.7,0.2 1651.5,0.1 2477.21,0.1 0.09,-40.8 0.09,-81.5 0.09,-122.3 40.7,0.1 81.5,0 122.3,-0.1 0,-39.8 0,-79.8 -0.09,-119.7 40,-0.2 80,-0.2 120.09,-0.3 -0.09,-27.1 0,-54.2 0.11,-81.4 3.8,2.6 11.3,7.8 15,10.4 -3.9,-3.3 -11.71,-10 -15.6,-13.3 2.5,-9 7.59,-26.9 10.2,-35.8 l 5.59,-3.3 c -5.39,-4.1 -11.19,-7.8 -16.79,-11.6 -20,14.3 -46.61,4.9 -69.4,7 -926.61,1.5 -1853.31,0.8 -2779.91,0.3 -24,0.2 -48.2,1.6 -71.79,-3.6 -13.21,2.6 -26.51,4.1 -39.71,5.8 0,5.5 -0.09,16.5 -0.09,22 -0.11,17.4 -0.11,34.6 0,51.9 0,17.3 0.09,34.5 0.19,51.7 40.8,0 81.6,0 122.5,0.1 0.1,39.9 0.1,79.8 0,119.7 40,0.2 80,0.3 120,0.3 0,40.7 0.1,81.4 0.1,122.1"
         style="fill:#f8ea07;fill-opacity:1;fill-rule:nonzero;stroke:none"
         id="path258" />
      <path
         d="m 2731.21,5395.2 c 571.5,248 1188.71,381.1 1808.71,425.7 26.79,2.9 53.79,4.7 80.89,3.9 -623.99,-94.3 -1207.7,-434.4 -1597.4,-930.9 -8,-7.6 -13.49,-22.4 -26.5,-21.4 -380.29,-1.1 -760.7,0.6 -1141,-0.8 264.8,215.3 562.8,387.5 875.3,523.5"
         style="fill:#e41d25;fill-opacity:1;fill-rule:nonzero;stroke:none"
         id="path260" />
      <path
         d="m 5523.52,5815.8 c 460.2,-42.7 917.79,-128.7 1355.6,-278.9 445.89,-151.9 875.2,-366 1241.39,-665 -348.6,0.7 -697.2,-0.2 -1045.7,0.5 -211.4,270 -475.4,499.2 -776.09,664.7 -241.21,133.7 -504.2,227.6 -775.2,278.7"
         style="fill:#e41d25;fill-opacity:1;fill-rule:nonzero;stroke:none"
         id="path262" />
      <path
         d="m 5761.22,2405.5 c -13.31,-165.7 -24,-331.6 -36.21,-497.4 30.8,-0.1 61.61,-0.1 92.41,-0.1 4,98.4 8.39,196.8 15.2,295 12.89,-96 35.29,-190.2 54.29,-285 26.2,0 52.41,0 78.7,0.2 20.5,93.9 39.4,188.1 58.71,282.2 -1.01,-97.5 6.39,-195 11.7,-292.4 31.49,0 63.1,0 94.69,0.1 -8.29,165.7 -18.69,331.3 -28.4,497 -37.5,0.3 -74.89,0.3 -112.3,0.4 -20.89,-107 -39.3,-214.4 -57.7,-321.9 -16.29,107.8 -39.8,214.3 -57.9,321.7 -37.79,0 -75.49,0 -113.19,0.2 z m -249.91,-50.1 c -54.69,-57.4 -68.8,-140.8 -67.79,-217.3 2.9,-73.2 20.89,-155.1 81.99,-202.3 48.5,-38.2 114.81,-34.8 172.2,-23.8 -0.09,33.4 -3.79,66.5 -7.1,99.5 -29.39,-2.4 -63.79,-10.4 -88.39,11 -38.91,32.4 -43.1,88 -44.21,135.1 1.8,49.2 7.11,108.6 51.2,139.3 23.3,17.9 54.6,11.8 80.51,3.9 6.79,32.5 12.19,65.2 18.1,97.8 -66.4,26.5 -147.9,9.8 -196.51,-43.2 z m -410.7,49.9 c -0.1,-165.7 0.1,-331.4 -0.1,-497.1 35.8,-0.2 71.51,-0.2 107.4,-0.2 0.1,66 -0.2,131.9 0.2,197.8 24.9,0 49.9,-0.1 75,-0.3 0.1,-65.8 -0.1,-131.6 0.1,-197.5 36.4,0 72.9,0 109.41,0 0.49,165.4 -0.71,330.8 0.69,496.2 -36.89,1.8 -73.79,1.6 -110.6,0.3 0.81,-63.8 0.3,-127.7 0.3,-191.6 -24.6,0 -49.29,-0.2 -73.8,-0.8 -2.9,64.4 -0.49,128.9 -1.5,193.3 -35.69,0 -71.4,0 -107.1,-0.1 z m -467.99,-1 c 1.19,-105.4 0.2,-210.8 0.49,-316.3 0.81,-41 6.3,-83.1 24.9,-120.2 36.6,-75.9 152,-86.2 210.4,-30.8 39.5,43.1 48.41,104.6 49.6,160.8 -0.3,102.6 0.2,205.1 -0.3,307.6 -35.8,0 -71.4,0 -107.1,-0.1 0,-95.9 -0.2,-191.9 0.1,-287.8 -2.1,-35.1 3.41,-74.6 -16.5,-105.5 -30.2,-25 -52.79,18.6 -51.99,44.9 -4.8,116 -0.51,232.3 -2.1,348.4 -35.91,0.3 -71.71,0.5 -107.5,-1 z m -364.51,1.1 c -0.4,-165.8 -0.1,-331.6 -0.2,-497.4 31.61,0 63.1,0 94.71,0 2.7,97.8 -4.61,195.4 -2.7,293 24.6,-100.5 67.5,-195.2 101.09,-292.9 33.11,-0.1 66.1,-0.1 99.2,0 0.11,165.7 0,331.4 0,497.1 -31.6,0.2 -63.1,0.2 -94.7,0 -1.39,-99.7 1.51,-199.4 9.21,-298.8 -35.11,100 -71.41,199.6 -108.21,299 -32.8,-0.1 -65.6,-0.1 -98.4,0 z m -361,-0.1 c 33.1,-165.9 68.4,-331.4 101.9,-497.3 41.2,0.2 82.41,-0.9 123.61,1.2 32.99,165.6 70,330.4 103.69,495.9 -39.69,0.4 -79.4,0.3 -119.2,0.2 -16.4,-119.8 -29.8,-240.1 -45.09,-360 -10.6,120.6 -29.71,240.3 -45.11,360.3 -40,-0.4 -79.89,-0.2 -119.8,-0.3 z m 1680.8,962.7 c 0,-290.8 -0.09,-581.5 0.1,-872.3 64.81,-0.1 129.7,0 194.61,0 0.2,115.8 -0.11,231.6 0.2,347.4 46.7,0.2 93.4,0.2 140.19,0 0.3,-115.8 -0.1,-231.6 0.2,-347.4 64.9,0 129.7,-0.1 194.61,0 0.19,290.8 0.09,581.5 0.09,872.3 -65,0 -129.9,0 -194.7,0 -0.2,-112.5 -0.1,-225 -0.1,-337.5 -46.8,-0.3 -93.59,-0.3 -140.4,0 -0.09,112.5 0.11,225 -0.09,337.5 -64.91,0 -129.8,0 -194.71,0 z m -1672.3,-0.1 c -0.1,-163.3 0,-326.6 -0.1,-490 -0.7,-104.5 2.5,-219 65.7,-307.3 54.9,-76.4 158.8,-95.2 246.61,-80.6 64,9.1 121.59,49.3 153.19,105.6 48.51,85.3 54.2,186.6 51.7,282.5 -0.09,163.3 0.11,326.6 -0.09,489.9 -64.91,0 -129.8,0 -194.71,0 0,-190.2 0,-380.3 0.1,-570.5 -1.39,-39.1 -2,-81.6 -24.09,-115.6 -16.01,-24.5 -57.1,-26.8 -74.2,-2.2 -34.8,48.1 -27.7,112.3 -29.6,168.5 0.2,173.3 0.09,346.5 0.09,519.7 -64.89,0.2 -129.7,0.2 -194.6,0 z m 1215.9,-53.3 c -78.89,-64.4 -104.4,-177.4 -80.7,-273.7 22.9,-86.5 95.21,-147.8 169.9,-190.7 40.1,-25.3 92.11,-57.4 87.5,-112.1 2.9,-39.8 -35.3,-66.9 -70.9,-71.7 -60.89,-9.3 -123.5,5.9 -178.9,31 -7.8,-59.4 -18,-118.4 -25,-177.8 119.01,-44.2 265.91,-48.9 371.11,31.2 86.7,65.8 114.4,188.2 85.49,289.9 -18.39,63.3 -62.59,116.2 -116.6,152.6 -41.7,28.5 -89.8,49.6 -123.49,88.2 -27.5,31.5 -18.3,87.3 20.4,105.3 53.69,27.7 118.8,11.3 169.29,-16.1 9.4,58.5 18.7,117 28.01,175.4 -106.81,46 -242.41,41.9 -336.11,-31.5 z m -509.49,0.1 c -81.7,-66.1 -106.9,-184.7 -78.31,-282.9 25.3,-82.1 94.9,-139.9 166.8,-181.5 37.5,-24.1 85.6,-51.7 87.6,-101.9 7.3,-38.9 -24.19,-72.8 -60.69,-79.8 -63.71,-13.6 -130.91,2.2 -189.01,29.6 -5.5,-59.5 -22.6,-120.8 -21.1,-178.8 75,-30.3 159.4,-38.4 239.11,-24.5 79.39,13.6 155.4,60.4 193.3,132.9 35.6,69.1 40.6,153.1 16.09,226.5 -26.2,77.4 -92.6,131.8 -161.89,170 -37.41,25.2 -91.01,51.6 -89.11,104 -2.39,33.1 25.8,58.8 55.4,67.1 50.7,14.3 104.31,-0.7 149.8,-24.3 8.91,58.4 18.6,116.7 27.5,175 -106.6,46 -242,41.8 -335.49,-31.4 z m -652.9,2268.8 c 283.5,130.3 591,205.3 901.79,227.4 39.9,1.4 79.8,0 119.8,-1.3 5.4,-95.4 1.11,-191.1 2.3,-286.6 -16.7,-0.1 -33.2,-0.3 -49.8,-0.5 -0.2,-19.8 -0.2,-39.7 -0.2,-59.6 -155.19,-0.3 -310.3,0 -465.5,-0.3 -41.6,-0.3 -77.3,24.3 -112.1,44 -57.9,34 -104.9,82.9 -143.9,137 -2.3,-95.1 0,-190.2 -1.1,-285.2 -2.79,-83.5 -20.2,-171.8 -75.8,-237 -27.7,-33.3 -72.1,-57.6 -116.2,-46.9 -36.3,7.7 -62.2,36.1 -86.9,61.6 -13.2,-35.4 -21.59,-78.6 4,-110.7 32.9,-40.4 89.21,-48.1 137.8,-53.4 82.4,-3.3 165,-0.2 247.5,-1.4 -0.2,-39.4 -1.8,-78.7 -3.79,-118 -127.81,0.6 -255.71,-0.3 -383.51,0.5 -11.49,-76.9 -60,-142.8 -110.69,-199.4 -53.3,-56.7 -125,-103.8 -204.71,-107 -41.4,1.2 -42.4,47.8 -42.3,78.5 -32,-49.7 -60.69,-123.4 -14.5,-173.6 57.3,-53.7 142,-59.6 216.7,-61.1 109.21,0.2 218.3,0.3 327.5,0 0.1,-185 0.1,-370 0,-555 -69.09,-0.3 -138.29,-0.1 -207.5,-0.1 -0.19,-104.9 -0.19,-209.9 0.1,-314.8 740.7,0.2 1481.3,0 2222.01,0.1 0.2,104.9 0.29,209.8 -0.11,314.6 -68.19,0.1 -136.4,-0.1 -204.69,0.1 -0.11,185.1 -0.2,370.1 0,555.2 110.9,0.2 221.79,0.1 332.69,-0.1 56.71,0.1 114.5,7.7 166.71,30.9 31.7,14.4 61.39,40.9 66.3,77.1 7.5,46.2 -15.11,89.4 -38.8,127.1 -1.81,-20.8 3.89,-44.6 -9.01,-63 -18.29,-20.9 -49,-17.2 -73,-10.9 -94.7,24.5 -170.4,95.3 -221.9,176.1 -23.5,38.8 -48.39,78.9 -53.3,125 -128.19,0.8 -256.4,-1.7 -384.5,1.2 -0.1,38.9 -1.19,77.8 -3,116.6 82.21,1.1 164.51,-1.7 246.7,1.3 50.71,4.8 109.91,13.4 142.21,57.6 23.5,31.7 12.19,72.7 2.19,107.2 -26.1,-25.7 -52.3,-56.2 -90.4,-62.8 -46.5,-9.7 -91.3,18.6 -119,53.9 -51.39,64.9 -66.9,149.7 -71,230.4 -0.99,95.3 0.31,190.6 -0.5,285.9 -56.4,-82.6 -138.9,-149.4 -234.6,-179.8 -162.6,-3.1 -325.49,-1.6 -488.1,-0.6 0,19.7 0.11,39.4 0.2,59 -15.8,0.1 -31.6,0.2 -47.3,0.2 -3.3,95.4 6.7,191.7 -5.4,286.4 53.4,1.5 106.9,6.3 160.4,0.9 404.71,-24.4 803.51,-146.4 1151.5,-354.7 256,-152 483.8,-350.7 669.91,-583 -270.2,-0.8 -540.4,-0.1 -810.6,-0.3 -0.11,-14.7 0,-29.4 0.09,-44.2 281.6,0 563.3,0 845,0 308.61,-405.2 481.6,-912.9 474.8,-1423 -440,-0.4 -880,0.1 -1320,-0.2 0,-15.6 0.11,-31.2 0.2,-46.8 439.3,0 878.7,0 1318.01,0 -11.41,-446.4 -162.01,-886 -417.21,-1251.6 -313.59,-3.7 -627.3,-0.4 -940.89,-1.6 -0.11,-10.9 -0.11,-32.6 -0.2,-43.5 302.9,-0.2 605.8,-0.4 908.7,0.1 -157.9,-213.3 -349.51,-402 -566.9,-554.5 -3.7,-2.6 -11.2,-7.8 -15,-10.4 -0.11,27.2 -0.2,54.3 -0.11,81.4 -40.09,0.1 -80.09,0.1 -120.09,0.3 0.09,39.9 0.09,79.9 0.09,119.7 -40.8,0.1 -81.6,0.2 -122.3,0.1 0,40.8 0,81.5 -0.09,122.3 -825.71,0 -1651.51,0.1 -2477.21,-0.1 0,-40.7 -0.1,-81.4 -0.1,-122.1 -40,0 -80,-0.1 -120,-0.3 0.1,-39.9 0.1,-79.8 0,-119.7 -40.9,-0.1 -81.7,-0.1 -122.5,-0.1 -0.1,-17.2 -0.19,-34.4 -0.19,-51.7 -206.11,148.8 -389.11,329.9 -539.31,535 266.9,-0.6 533.8,0.4 800.7,-0.5 0.11,14.9 0.2,29.6 0.2,44.3 -277.39,-0.3 -554.8,-0.7 -832.3,0.2 -257.5,365 -406.4,806 -419.4,1252.7 417.3,0 834.71,0 1252.1,0 -0.09,15.7 -0.09,31.3 0,46.9 -417.3,-0.1 -834.6,0 -1251.8,0 -10.1,510.1 165.1,1018 473.41,1423 259.39,0.2 518.9,0 778.3,0.1 0,14.7 0.09,29.3 0.29,43.9 -248.19,0.5 -496.3,0.3 -744.4,0.2 243.4,304.2 558.91,550.1 913.51,711.4"
         style="fill:#e41d25;fill-opacity:1;fill-rule:nonzero;stroke:none"
         id="path264" />
      <path
         d="m 1784.71,4810.4 c 9.8,7.2 18.7,19.9 32.7,17.5 385.3,0.1 770.7,0.2 1156.1,-0.1 -301.89,-407.9 -469,-915.1 -460.4,-1423.1 -475,0.3 -950.1,0.1 -1425.2,0.2 -11.49,304.7 80.1,607.7 237.7,866.9 122.3,203.1 281.5,382.2 459.1,538.6"
         style="fill:#e41d25;fill-opacity:1;fill-rule:nonzero;stroke:none"
         id="path266" />
      <path
         d="m 7106.91,4828 c 355.4,-0.3 710.8,0.7 1066.2,-0.5 250.7,-216.6 467.8,-479.6 596.7,-787 84.11,-200.4 126.7,-418.2 121.1,-635.5 -440.99,-0.2 -881.99,-0.1 -1323,-0.1 7.01,508 -159.39,1014.8 -461,1423.1"
         style="fill:#e41d25;fill-opacity:1;fill-rule:nonzero;stroke:none"
         id="path268" />
      <path
         d="m 4347.91,4318 c 0,-133.3 -0.09,-266.7 0.1,-400 89.1,0.1 178.2,-0.3 267.4,0.2 -0.29,133.2 -0.29,266.4 0,399.5 -89.2,0.6 -178.3,0.2 -267.5,0.3 z m -75.69,-469.1 c 1.79,180.7 -1.21,361.4 1.49,542.1 138.91,-0.8 277.8,0 416.8,-0.4 0.2,-180.9 0.1,-361.7 0,-542.5 -139.4,0.4 -278.89,-1.3 -418.29,0.8"
         style="fill:#e41d25;fill-opacity:1;fill-rule:nonzero;stroke:none"
         id="path270" />
      <path
         d="m 4785.32,4383 c 68.6,-0.2 137.19,1.7 205.69,-1.1 -0.2,-15.5 -0.3,-31.1 -0.4,-46.7 -39.9,-7.4 -78.1,-21.8 -112.2,-43.9 -30.2,31.5 -64,59.2 -93.09,91.7"
         style="fill:#e41d25;fill-opacity:1;fill-rule:nonzero;stroke:none"
         id="path272" />
      <path
         d="m 5048.31,4383.6 c 69.6,-0.9 139.31,0.1 208.91,-0.6 -33.01,-29.8 -64.6,-61 -97.1,-91.3 -34.1,21.1 -71.31,37.8 -111.51,42 -0.2,16.7 -0.3,33.3 -0.3,49.9"
         style="fill:#e41d25;fill-opacity:1;fill-rule:nonzero;stroke:none"
         id="path274" />
      <path
         d="m 5425.61,4317.9 c -0.1,-133.3 -0.1,-266.5 0,-399.8 89,-0.2 178,-0.1 267.01,-0.1 0.09,133.4 0.09,266.7 0,400 -89.01,0 -178.01,0.1 -267.01,-0.1 z m -75.4,72.6 c 138.51,-0.3 277.01,1.5 415.5,-0.9 4.8,-180.4 1.2,-360.9 2,-541.3 -139.19,-0.6 -278.39,-0.4 -417.59,-0.1 0.2,180.8 0.09,361.5 0.09,542.3"
         style="fill:#e41d25;fill-opacity:1;fill-rule:nonzero;stroke:none"
         id="path276" />
      <path
         d="m 4745.41,4343.5 c 32.01,-29.4 62.8,-60.1 95.1,-89.2 -21.1,-31.1 -37.69,-65 -45.99,-101.8 -16.61,0.4 -33.1,0.8 -49.6,1.3 0.69,63.2 0,126.4 0.49,189.7"
         style="fill:#e41d25;fill-opacity:1;fill-rule:nonzero;stroke:none"
         id="path278" />
      <path
         d="m 5199.32,4253.5 c 31.49,30.9 63.69,61.2 95.69,91.6 1.1,-64.1 0.5,-128.2 0.4,-192.3 -17,0 -33.99,0 -50.89,0 -8.21,36.4 -24.31,70.1 -45.2,100.7"
         style="fill:#e41d25;fill-opacity:1;fill-rule:nonzero;stroke:none"
         id="path280" />
      <path
         d="m 4960.91,4273.9 c 97,37.8 219.5,-30.5 229.3,-136.2 13.91,-100.7 -85.4,-190.1 -183.3,-179.5 -82.7,4.1 -158.2,74.9 -159.09,159.3 -1.81,69.6 47.99,134.4 113.09,156.4"
         style="fill:#e41d25;fill-opacity:1;fill-rule:nonzero;stroke:none"
         id="path282" />
      <path
         d="m 5246.11,4100.3 c 16.31,0.2 32.7,0.4 49.21,0.6 0.49,-67.9 0.09,-135.9 0.29,-203.8 -33.19,29.1 -64.3,60.4 -96.49,90.5 24.69,33.2 40.69,71.8 46.99,112.7"
         style="fill:#e41d25;fill-opacity:1;fill-rule:nonzero;stroke:none"
         id="path284" />
      <path
         d="m 4745.32,4100.9 c 15.99,-0.3 32.19,-0.6 48.29,-1 5.6,-40.6 22.5,-78.4 45.51,-112.1 -29.8,-31.5 -62.7,-60 -93.8,-90.3 -0.11,67.8 -0.2,135.6 0,203.4"
         style="fill:#e41d25;fill-opacity:1;fill-rule:nonzero;stroke:none"
         id="path286" />
      <path
         d="m 4786.71,3860.3 c 29.4,31.5 62.21,59.4 92.3,90.1 33.61,-23.2 72.3,-36.6 112.2,-44.7 -0.4,-15 -0.6,-30.1 -0.8,-45.1 -67.9,-0.5 -135.8,-0.1 -203.7,-0.3"
         style="fill:#e41d25;fill-opacity:1;fill-rule:nonzero;stroke:none"
         id="path288" />
      <path
         d="m 5047.91,3906.5 c 39.71,6.6 77.7,20.9 111.41,43.1 32.59,-28.6 62.79,-59.9 95,-89 -68.81,-0.6 -137.5,-0.1 -206.31,-0.3 -0.1,15.4 -0.19,30.9 -0.1,46.2"
         style="fill:#e41d25;fill-opacity:1;fill-rule:nonzero;stroke:none"
         id="path290" />
      <path
         d="m 1088.71,3357.4 c 474.9,1.2 949.9,0.6 1424.8,0.3 11.8,-445.3 156.3,-885.6 407.8,-1253 -377.8,0.5 -755.5,-0.1 -1133.2,0.3 -15.1,-1.8 -28.2,4.7 -38,15.7 -204.4,186 -383.3,404.3 -503.9,654.2 -89.3,181.8 -142.7,380.6 -157.5,582.5"
         style="fill:#e41d25;fill-opacity:1;fill-rule:nonzero;stroke:none"
         id="path292" />
      <path
         d="m 7568.31,3358 c 439.9,0 879.9,0 1319.8,0 -22,-370.9 -191.89,-720 -430.69,-999.8 -77.9,-89 -157.7,-178.6 -250.51,-252 -349.2,-3.3 -698.5,-0.2 -1047.79,-1.6 228.7,335 369.19,729.9 401.09,1134.4 3.1,39.7 3.8,79.5 8.1,119"
         style="fill:#e41d25;fill-opacity:1;fill-rule:nonzero;stroke:none"
         id="path294" />
      <path
         d="m 1817.51,2061.4 c 373.81,-0.8 747.6,0.3 1121.3,-0.5 14.8,2.7 20.6,-14.1 28.9,-22.8 157.41,-217.6 351.7,-407.8 570.11,-563.7 0,-5.5 0.09,-16.5 0.09,-22 13.2,-1.7 26.5,-3.2 39.71,-5.8 224.8,-153.5 474.09,-271.6 735.99,-346.1 -453.8,46.4 -902.9,146.9 -1331.5,303.8 -419.6,155 -822.2,367 -1164.6,657.1"
         style="fill:#e41d25;fill-opacity:1;fill-rule:nonzero;stroke:none"
         id="path296" />
      <path
         d="m 6515.51,1454.5 c 235.91,166.3 446.4,369.5 612.9,605.7 343.7,2.3 687.5,0.1 1031.2,1.1 -266,-225.9 -569.89,-404.4 -888.39,-545.4 -456.01,-201 -942.7,-329 -1436.01,-395.1 235.2,74.6 458.2,185.4 663.51,322.1 5.6,3.8 11.4,7.5 16.79,11.6"
         style="fill:#e41d25;fill-opacity:1;fill-rule:nonzero;stroke:none"
         id="path298" />
      <path
         d="m 3649.41,1450.2 c 926.6,0.5 1853.3,1.2 2779.91,-0.3 -244.31,-160.7 -518.91,-274.2 -803.41,-340.6 -149.89,-37.6 -305.7,-35.9 -459.09,-43.3 -136.41,-4 -272.7,-3.7 -409,2.3 -93.7,0.1 -186.81,14.1 -278.01,35.1 -294.3,65.3 -577.7,182.1 -830.4,346.8"
         style="fill:#e41d25;fill-opacity:1;fill-rule:nonzero;stroke:none"
         id="path300" />
    </g>
  </g>
</svg>
